<?xml version="1.0" encoding="UTF-8" standalone="no"?>
<!-- Created with Inkscape (http://www.inkscape.org/) -->

<svg
   xmlns:dc="http://purl.org/dc/elements/1.1/"
   xmlns:cc="http://creativecommons.org/ns#"
   xmlns:rdf="http://www.w3.org/1999/02/22-rdf-syntax-ns#"
   xmlns:svg="http://www.w3.org/2000/svg"
   xmlns="http://www.w3.org/2000/svg"
   xmlns:sodipodi="http://sodipodi.sourceforge.net/DTD/sodipodi-0.dtd"
   xmlns:inkscape="http://www.inkscape.org/namespaces/inkscape"
   width="210mm"
   height="297mm"
   viewBox="0 0 210 297"
   version="1.1"
   id="svg890"
   sodipodi:docname="drawing_space.svg"
   inkscape:version="0.92.5 (2060ec1f9f, 2020-04-08)">
  <defs
     id="defs884" />
  <sodipodi:namedview
     id="base"
     pagecolor="#ffffff"
     bordercolor="#666666"
     borderopacity="1.0"
     inkscape:pageopacity="0.0"
     inkscape:pageshadow="2"
     inkscape:zoom="0.7"
     inkscape:cx="544.25901"
     inkscape:cy="582.53956"
     inkscape:document-units="mm"
     inkscape:current-layer="019---Astronaut-Sitting-On-Planet"
     showgrid="false"
     inkscape:window-width="1848"
     inkscape:window-height="1016"
     inkscape:window-x="72"
     inkscape:window-y="27"
     inkscape:window-maximized="1" />
  <metadata
     id="metadata887">
    <rdf:RDF>
      <cc:Work
         rdf:about="">
        <dc:format>image/svg+xml</dc:format>
        <dc:type
           rdf:resource="http://purl.org/dc/dcmitype/StillImage" />
        <dc:title></dc:title>
      </cc:Work>
    </rdf:RDF>
  </metadata>
  <g
     inkscape:label="Layer 1"
     inkscape:groupmode="layer"
     id="layer1">
    <g
       id="019---Astronaut-Sitting-On-Planet"
       transform="matrix(2.3356322,0,0,2.3356322,42.427178,72.785124)"
       style="fill:none">
      <path
         d="M 15.6,33.64 C 14.607883,33.246411 13.899594,32.355338 13.74,31.3 L 11.39,15.61 c -0.224057,-1.48989 0.691683,-2.914849 2.14,-3.33 L 20.53,10 20,35.11 c -1.525103,-0.293713 -3.004619,-0.788005 -4.4,-1.47 z"
         id="Shape"
         inkscape:connector-curvature="0"
         style="fill:#2c3e50" />
      <path
         d="m 39,45 c 0.0029,0.9795 -0.107797,1.956032 -0.33,2.91 -8.384011,1.454968 -16.955989,1.454968 -25.34,0 -0.911399,-3.975352 0.09566,-8.147993 2.72,-11.27 C 23.77,27.42 39,32.83 39,45 Z"
         id="path1436"
         inkscape:connector-curvature="0"
         style="fill:#1875f0;fill-opacity:1" />
      <path
         d="m 38.85,43.05 c -0.435296,1.487815 -1.799814,2.510186 -3.35,2.51 -1.92397,-0.02162 -3.47838,-1.57603 -3.5,-3.5 V 44 c 0.02298,1.679976 -1.131722,3.147319 -2.77,3.52 -1.040028,0.225764 -2.126232,-0.03536 -2.950002,-0.709174 C 25.456227,46.137009 24.984926,45.124143 25,44.06 v -6.49 c 0.01371,-0.470697 -0.302817,-0.887185 -0.76,-1 -4.79,-1.19 -5.23,-1.16 -6.09,-2 3.663788,-2.769008 8.516711,-3.39947 12.766404,-1.658533 C 35.166097,34.652404 38.181913,38.506388 38.85,43.05 Z"
         id="path1438"
         inkscape:connector-curvature="0"
         style="fill:#004db3;fill-opacity:1" />
      <path
         d="M 38.67,47.91 C 37.313613,53.814596 32.058386,57.999485 26,57.999485 c -6.058386,0 -11.313613,-4.184889 -12.67,-10.089485 8.384438,1.450003 16.955562,1.450003 25.34,0 z"
         id="path1440"
         inkscape:connector-curvature="0"
         style="fill:#1875f0;fill-opacity:1" />
      <path
         d="m 51,45 c 0,4.52 -6.64,7.23 -15,8.36 -6.606126,0.849646 -13.293874,0.849646 -19.9,0 C 7.64,52.23 1,49.52 1,45 1,40.48 7.64,37.77 16.05,36.64 15.106848,37.759936 14.359669,39.031155 13.84,40.4 3.59,42.29 3.36,46 13.33,47.91 c 8.384438,1.450003 16.955562,1.450003 25.34,0 9.54,-1.85 9.89,-5.37 0.33,-7.35 V 37.14 C 45.91,38.47 51,41 51,45 Z"
         id="path1442"
         inkscape:connector-curvature="0"
         style="fill:#f9eab0" />
      <path
         d="M 39,30.5 C 39,41.13 39.13,41 38.65,42 38.256085,42.839003 37.542882,43.485542 36.66937,43.795498 35.795858,44.105454 34.834648,44.053061 34,43.65 32.785881,43.068776 32.009539,41.846036 32,40.5 v 1.9 c 0.02298,1.679976 -1.131722,3.147319 -2.77,3.52 -1.033124,0.224159 -2.112171,-0.03205 -2.934253,-0.696714 C 25.473666,44.558625 24.997165,43.557159 25,42.5 V 36 C 25.013714,35.529303 24.697183,35.112815 24.24,35 19.17,33.74 19.6,33.86 19.39,33.78 17.983747,33.290996 17.030322,31.978541 17,30.49 V 19.56 l 15.78,-1.12 5.33,9.73 c 0.574364,0.640023 0.891411,1.470046 0.89,2.33 z"
         id="path1444"
         inkscape:connector-curvature="0"
         style="fill:#35495e" />
      <path
         d="M 34,31 V 43.65 C 32.779192,43.076342 31.999846,41.848872 32,40.5 32,29.97 32.13,30.5 31.63,29.69 31.455649,29.233898 31.6362,28.718574 32.05706,28.471001 32.477934,28.223428 33.016061,28.316009 33.33,28.69 33.759719,29.384533 33.991403,30.183323 34,31 Z"
         id="path1446"
         inkscape:connector-curvature="0"
         style="fill:#2c3e50" />
      <g
         id="g1456"
         style="fill:#f0c419">
        <path
           d="M 3,26 C 2.4477153,26 2,25.552285 2,25 v -4 c 0,-0.552285 0.4477153,-1 1,-1 0.5522848,0 1,0.447715 1,1 v 4 c 0,0.552285 -0.4477152,1 -1,1 z"
           id="path1448"
           inkscape:connector-curvature="0"
           style="fill:#1875f0;fill-opacity:1" />
        <path
           d="M 5,24 H 1 C 0.44771525,24 0,23.552285 0,23 0,22.447715 0.44771525,22 1,22 h 4 c 0.5522847,0 1,0.447715 1,1 0,0.552285 -0.4477153,1 -1,1 z"
           id="path1450"
           inkscape:connector-curvature="0"
           style="fill:#1875f0;fill-opacity:1" />
        <path
           d="M 50,8 C 49.447715,8 49,7.5522847 49,7 V 3 c 0,-0.5522847 0.447715,-1 1,-1 0.552285,0 1,0.4477153 1,1 v 4 c 0,0.5522847 -0.447715,1 -1,1 z"
           id="path1452"
           inkscape:connector-curvature="0"
           style="fill:#1875f0;fill-opacity:1" />
        <path
           style="stroke-width:8.82758617;fill:#1875f0;fill-opacity:1"
           d="M 584.07812 310.4043 C 579.20278 310.4043 575.25195 314.35513 575.25195 319.23047 C 575.25195 324.10581 579.20278 328.05859 584.07812 328.05859 L 619.38867 328.05859 C 624.26402 328.05859 628.2168 324.10581 628.2168 319.23047 C 628.2168 314.35513 624.26402 310.4043 619.38867 310.4043 L 584.07812 310.4043 z "
           transform="matrix(0.11328125,0,0,0.11328125,-18.165179,-31.162922)"
           id="path1454" />
      </g>
      <path
         d="m 17.44,16.43 c -0.39,0.65 -0.38,0.93 -0.67,2.71 -0.650256,3.896847 1.316874,7.762156 4.85,9.53 6.5,3.24 6.45,3.33 7.38,3.33 1.08382,-9.02e-4 2.082885,-0.586321 2.613453,-1.531395 C 32.144021,29.523531 32.123587,28.365763 31.56,27.44 c -0.6,-1 -1.35,-1.18 -3.83,-2.43 L 24.31,23.3 c -0.856855,-0.426616 -1.458699,-1.236504 -1.62,-2.18 z"
         id="path1458"
         inkscape:connector-curvature="0"
         style="fill:#3f5c6c" />
      <path
         d="m 31,21.25 c 2.38,5.25 0.28,6 1.24,8.07 1.25,2.74 7.52,3 5.73,-6.2 -0.33,-1.73 -0.93,-4.19 -2.32,-5.38 z"
         id="path1460"
         inkscape:connector-curvature="0"
         style="fill:#3f5c6c" />
      <path
         d="m 46,35 c -0.552285,0 -1,-0.447715 -1,-1 v -4 c 0,-0.552285 0.447715,-1 1,-1 0.552285,0 1,0.447715 1,1 v 4 c 0,0.552285 -0.447715,1 -1,1 z"
         id="path1462"
         inkscape:connector-curvature="0"
         style="fill:#1875f0;fill-opacity:1" />
      <path
         d="m 48,33 h -4 c -0.552285,0 -1,-0.447715 -1,-1 0,-0.552285 0.447715,-1 1,-1 h 4 c 0.552285,0 1,0.447715 1,1 0,0.552285 -0.447715,1 -1,1 z"
         id="path1464"
         inkscape:connector-curvature="0"
         style="fill:#1875f0;fill-opacity:1" />
      <path
         d="m 16,11 c 0,6.075132 4.924868,11 11,11 6.075132,0 11,-4.924868 11,-11 C 38,4.9248677 33.075132,0 27,0 20.924868,0 16,4.9248677 16,11 Z"
         id="path1466"
         inkscape:connector-curvature="0"
         style="fill:#547580" />
      <path
         d="M 36.61,16.35 C 32.49,18.92 26.28,18.42 23,15.3 18.16,10.73 22.58,4 30.5,4 c 2.150702,-0.030677 4.267106,0.5408566 6.11,1.65 1.851571,3.3263641 1.851571,7.373636 0,10.7 z"
         id="path1468"
         inkscape:connector-curvature="0"
         style="fill:#1875f0;fill-opacity:1" />
      <path
         d="M 35,12 C 34.447715,12 34,11.552285 34,11 34,8 30.16,8 30,8 29.447715,8 29,7.5522847 29,7 c 0,-0.5522848 0.447715,-1 1,-1 2.08,0 6,1 6,5 0,0.552285 -0.447715,1 -1,1 z"
         id="path1470"
         inkscape:connector-curvature="0"
         style="fill:#f9eab0" />
      <path
         d="m 37.59,14 c -0.239498,0.82639 -0.575126,1.621828 -1,2.37 -2.943511,1.707068 -6.463375,2.116271 -9.72,1.13 -5.09,-1.54 -7.26,-5.9 -5,-9.42 3.18,3.71 8.28,7.23 15.72,5.92 z"
         id="path1472"
         inkscape:connector-curvature="0"
         style="fill:#004db3;fill-opacity:1" />
    </g>
  </g>
</svg>
