<?xml version="1.0" encoding="UTF-8" standalone="no"?>
<svg
   xmlns:dc="http://purl.org/dc/elements/1.1/"
   xmlns:cc="http://creativecommons.org/ns#"
   xmlns:rdf="http://www.w3.org/1999/02/22-rdf-syntax-ns#"
   xmlns:svg="http://www.w3.org/2000/svg"
   xmlns="http://www.w3.org/2000/svg"
   xmlns:sodipodi="http://sodipodi.sourceforge.net/DTD/sodipodi-0.dtd"
   xmlns:inkscape="http://www.inkscape.org/namespaces/inkscape"
   id="_x33_0"
   enable-background="new 0 0 64 64"
   height="512"
   viewBox="0 0 64 64"
   width="512"
   version="1.1"
   sodipodi:docname="chemistry.svg"
   inkscape:version="0.92.5 (2060ec1f9f, 2020-04-08)">
  <metadata
     id="metadata121">
    <rdf:RDF>
      <cc:Work
         rdf:about="">
        <dc:format>image/svg+xml</dc:format>
        <dc:type
           rdf:resource="http://purl.org/dc/dcmitype/StillImage" />
      </cc:Work>
    </rdf:RDF>
  </metadata>
  <defs
     id="defs119" />
  <sodipodi:namedview
     pagecolor="#ffffff"
     bordercolor="#666666"
     borderopacity="1"
     objecttolerance="10"
     gridtolerance="10"
     guidetolerance="10"
     inkscape:pageopacity="0"
     inkscape:pageshadow="2"
     inkscape:window-width="1848"
     inkscape:window-height="1016"
     id="namedview117"
     showgrid="false"
     inkscape:zoom="0.921875"
     inkscape:cx="256"
     inkscape:cy="256"
     inkscape:window-x="72"
     inkscape:window-y="27"
     inkscape:window-maximized="1"
     inkscape:current-layer="_x33_0" />
  <g
     id="g5035"
     transform="matrix(0.11811441,0,0,0.10222457,1.7166019,7.9521155)"
     style="stroke-width:1.1375773">
    <path
       id="path5023"
       d="M 137.262,0 C 61.454,0 0,114.615 0,256 0,397.385 61.454,512 137.262,512 187.954,512 232.228,460.744 256,384.511 V 127.489 C 232.228,51.256 187.954,0 137.262,0 Z"
       inkscape:connector-curvature="0"
       style="fill:#e5f7ff;stroke-width:1.1375773" />
    <path
       id="path5025"
       d="M 374.738,0 C 324.046,0 279.772,51.256 256,127.489 V 384.511 C 279.772,460.744 324.046,512 374.738,512 450.546,512 512,397.385 512,256 512,114.615 450.546,0 374.738,0 Z"
       inkscape:connector-curvature="0"
       style="fill:#bfebff;stroke-width:1.1375773" />
    <path
       id="path5027"
       d="m 339.772,53.723 c -33.738,0 -63.876,28.722 -83.772,73.766 v 257.022 c 19.896,45.044 50.034,73.766 83.772,73.766 59.911,0 108.478,-90.562 108.478,-202.277 0,-111.715 -48.568,-202.277 -108.478,-202.277 z"
       inkscape:connector-curvature="0"
       style="fill:#85d9ff;stroke-width:1.1375773" />
    <path
       id="path5029"
       d="M 172.228,53.723 C 112.317,53.723 63.75,144.285 63.75,256 c 0,111.715 48.567,202.277 108.478,202.277 33.738,0 63.876,-28.722 83.772,-73.766 V 127.489 C 236.104,82.445 205.966,53.723 172.228,53.723 Z"
       inkscape:connector-curvature="0"
       style="fill:#bfebff;stroke-width:1.1375773" />
    <path
       id="path5031"
       d="M 256,127.5 178.224,256 256,384.5 c 70.855,0 128.5,-57.645 128.5,-128.5 0,-70.855 -57.645,-128.5 -128.5,-128.5 z"
       inkscape:connector-curvature="0"
       style="fill:#455f80;stroke-width:1.1375773" />
    <path
       id="path5033"
       d="m 127.5,256 c 0,70.855 57.645,128.5 128.5,128.5 v -257 c -70.855,0 -128.5,57.645 -128.5,128.5 z"
       inkscape:connector-curvature="0"
       style="fill:#587aa1;stroke-width:1.1375773" />
  </g>
  <g
     transform="matrix(0.68069984,0,0,0.64570804,18.339894,22.721682)"
     id="g114"
     style="stroke-width:1.50835681">
    <g
       id="g106"
       style="stroke-width:1.50835681">
      <g
         id="g4"
         style="stroke-width:1.50835681">
        <path
           style="fill:#ffeaa7;stroke-width:1.50835681"
           inkscape:connector-curvature="0"
           d="m 21,42 1.73,12.09 V 54.1 C 22.55,54.03 22.35,54 22.15,54 21.44,54 20.8,54.4 20.49,55.02 L 20,56 h -3 l 2,-14 z"
           id="path2" />
      </g>
      <g
         id="g8"
         style="stroke-width:1.50835681">
        <path
           style="fill:#fcd770;stroke-width:1.50835681"
           inkscape:connector-curvature="0"
           d="M 22.75,39.37 21,42 H 19 L 17.25,39.38 20,38 Z"
           id="path6" />
      </g>
      <g
         id="g12"
         style="stroke-width:1.50835681">
        <path
           style="fill:#b4dd7f;stroke-width:1.50835681"
           inkscape:connector-curvature="0"
           d="m 26,51 v 5.17 0.01 C 25.69,56.06 25.35,56 25,56 H 24 V 55.85 C 24,55.03 23.47,54.34 22.73,54.1 V 54.09 L 21,42 22.75,39.37 26,41 Z"
           id="path10" />
      </g>
      <g
         id="g16"
         style="stroke-width:1.50835681">
        <path
           style="fill:#b4dd7f;stroke-width:1.50835681"
           inkscape:connector-curvature="0"
           d="M 17.25,39.38 19,42 17,56 H 14 V 41 Z"
           id="path14" />
      </g>
      <g
         id="g20"
         style="stroke-width:1.50835681">
        <path
           style="fill:#a0d468;stroke-width:1.50835681"
           inkscape:connector-curvature="0"
           d="m 26,34 v 7 L 22.75,39.37 20,38 24,34 Z"
           id="path18" />
      </g>
      <g
         id="g24"
         style="stroke-width:1.50835681">
        <path
           style="fill:#a0d468;stroke-width:1.50835681"
           inkscape:connector-curvature="0"
           d="M 20,38 17.25,39.38 14,41 v -6.72 c 0.65,-0.14 1.32,-0.23 2,-0.28 z"
           id="path22" />
      </g>
      <g
         id="g28"
         style="stroke-width:1.50835681">
        <path
           style="fill:#e6e9ed;stroke-width:1.50835681"
           inkscape:connector-curvature="0"
           d="m 30,34 c 8.84,0 16,-7.16 16,-16 v 3 c 0,0.55 0.22,1.05 0.59,1.41 0.36,0.37 0.86,0.59 1.41,0.59 1.1,0 2,-0.9 2,-2 v -2 c 0,0.55 0.22,1.05 0.59,1.41 C 50.95,20.78 51.45,21 52,21 v 2.78 c 0,6.61 -3.08,12.62 -8,16.5 V 39 c 0,-0.55 -0.45,-1 -1,-1 h -2 c -0.55,0 -1,0.45 -1,1 v 3.76 c -1.53,0.72 -3.16,1.27 -4.88,1.62 L 32,45 v 5 h -5 c -0.55,0 -1,0.45 -1,1 V 41 34 Z"
           id="path26" />
      </g>
      <g
         id="g32"
         style="stroke-width:1.50835681">
        <path
           style="fill:#e6e9ed;stroke-width:1.50835681"
           inkscape:connector-curvature="0"
           d="m 14,56 h 3 3 v 6 H 12 C 6.48,62 2,57.52 2,52 V 49.04 C 2,41.81 7.1,35.7 14,34.28 V 41 Z"
           id="path30" />
      </g>
      <g
         id="g36"
         style="stroke-width:1.50835681">
        <path
           style="fill:#ccd1d9;stroke-width:1.50835681"
           inkscape:connector-curvature="0"
           d="m 50,8 v 5 H 46 V 8 c 0,-1.1 0.9,-2 2,-2 0.55,0 1.05,0.22 1.41,0.59 C 49.78,6.95 50,7.45 50,8 Z"
           id="path34" />
      </g>
      <g
         id="g40"
         style="stroke-width:1.50835681">
        <path
           style="fill:#69d6f4;stroke-width:1.50835681"
           inkscape:connector-curvature="0"
           d="m 50,19 v 2 c 0,1.1 -0.9,2 -2,2 -0.55,0 -1.05,-0.22 -1.41,-0.59 C 46.22,22.05 46,21.55 46,21 v -3 -3 -2 h 4 v 2 z"
           id="path38" />
      </g>
      <g
         id="g44"
         style="stroke-width:1.50835681">
        <path
           style="fill:#656d78;stroke-width:1.50835681"
           inkscape:connector-curvature="0"
           d="m 36,18 c 0,3.31 -2.69,6 -6,6 -0.02,0 -0.04,0 -0.06,0 H 29.93 C 29.98,23.71 30,23.42 30,23.12 v -3.29 -0.01 c 1.17,-0.4 2,-1.51 2,-2.82 0,-1.31 -0.83,-2.42 -2,-2.82 V 14.17 12 c 0,-1.1 -0.9,-2 -2,-2 h -4 -4 c -2.21,0 -4,1.79 -4,4 v 2 H 14.47 C 13.11,16 12,17.11 12,18.47 c 0,0.94 0.53,1.79 1.37,2.21 L 16,22 v 7.46 C 15.41,29.81 14.73,30 14,30 11.79,30 10,28.21 10,26 7.79,26 6,24.21 6,22 6,20.93 6.42,19.97 7.1,19.25 5.25,18.23 4,16.26 4,14 4,10.69 6.69,8 10,8 10,4.69 12.69,2 16,2 17.54,2 18.94,2.58 20,3.54 21.06,2.58 22.46,2 24,2 25.86,2 27.51,2.84 28.62,4.17 29.06,4.06 29.52,4 30,4 c 3.31,0 6,2.69 6,6 0,1.54 -0.58,2.94 -1.54,4 0.96,1.06 1.54,2.46 1.54,4 z"
           id="path42" />
      </g>
      <g
         id="g48"
         style="stroke-width:1.50835681">
        <path
           style="fill:#f0d0b4;stroke-width:1.50835681"
           inkscape:connector-curvature="0"
           d="m 30,14.17 v 0.01 C 29.69,14.06 29.35,14 29,14 c -1.31,0 -2.42,0.83 -2.82,2 h -0.01 -4.33 l -0.02,0.01 C 21.42,14.84 20.31,14 19,14 c -1.33,0 -2.45,0.86 -2.84,2.06 L 16,16 v -2 c 0,-2.21 1.79,-4 4,-4 h 4 4 c 1.1,0 2,0.9 2,2 z"
           id="path46" />
      </g>
      <g
         id="g52"
         style="stroke-width:1.50835681">
        <path
           style="fill:#f0d0b4;stroke-width:1.50835681"
           inkscape:connector-curvature="0"
           d="m 30,19.83 v 3.29 c 0,0.3 -0.02,0.59 -0.07,0.88 -0.41,3.35 -3.24,5.94 -6.69,5.99 V 30 L 24,34 20,38 16,34 V 29.46 22 L 13.37,20.68 C 12.53,20.26 12,19.41 12,18.47 12,17.11 13.11,16 14.47,16 H 16 l 0.16,0.06 C 16.05,16.35 16,16.67 16,17 c 0,1.66 1.34,3 3,3 1.66,0 3,-1.34 3,-3 0,-0.35 -0.06,-0.68 -0.18,-0.99 L 21.84,16 h 4.33 0.01 C 26.06,16.31 26,16.65 26,17 c 0,1.66 1.34,3 3,3 0.35,0 0.69,-0.06 1,-0.18 z"
           id="path50" />
      </g>
      <g
         id="g56"
         style="stroke-width:1.50835681">
        <path
           style="fill:#69d6f4;stroke-width:1.50835681"
           inkscape:connector-curvature="0"
           d="m 29,14 c 0.35,0 0.69,0.06 1,0.18 1.17,0.4 2,1.51 2,2.82 0,1.31 -0.83,2.42 -2,2.82 -0.31,0.12 -0.65,0.18 -1,0.18 -1.66,0 -3,-1.34 -3,-3 0,-0.35 0.06,-0.69 0.18,-1 0.4,-1.17 1.51,-2 2.82,-2 z"
           id="path54" />
      </g>
      <g
         id="g60"
         style="stroke-width:1.50835681">
        <path
           style="fill:#69d6f4;stroke-width:1.50835681"
           inkscape:connector-curvature="0"
           d="M 21.82,16.01 C 21.94,16.32 22,16.65 22,17 c 0,1.66 -1.34,3 -3,3 -1.66,0 -3,-1.34 -3,-3 0,-0.33 0.05,-0.65 0.16,-0.94 C 16.55,14.86 17.67,14 19,14 c 1.31,0 2.42,0.84 2.82,2.01 z"
           id="path58" />
      </g>
      <g
         id="g64"
         style="stroke-width:1.50835681">
        <path
           style="fill:#f0d0b4;stroke-width:1.50835681"
           inkscape:connector-curvature="0"
           d="m 54,19 c 0,1.1 -0.9,2 -2,2 -0.55,0 -1.05,-0.22 -1.41,-0.59 C 50.22,20.05 50,19.55 50,19 v -4 c 0,-1.1 0.9,-2 2,-2 0.55,0 1.05,0.22 1.41,0.59 C 53.78,13.95 54,14.45 54,15 Z"
           id="path62" />
      </g>
      <g
         id="g68"
         style="stroke-width:1.50835681">
        <path
           style="fill:#f0d0b4;stroke-width:1.50835681"
           inkscape:connector-curvature="0"
           d="M 45.41,13.59 C 45.78,13.95 46,14.45 46,15 46,15.55 45.78,16.05 45.41,16.41 45.05,16.78 44.55,17 44,17 42.9,17 42,16.1 42,15 42,14.45 42.22,13.95 42.59,13.59 42.95,13.22 43.45,13 44,13 c 0.55,0 1.05,0.22 1.41,0.59 z"
           id="path66" />
      </g>
      <g
         id="g72"
         style="stroke-width:1.50835681">
        <path
           style="fill:#f0d0b4;stroke-width:1.50835681"
           inkscape:connector-curvature="0"
           d="m 28,59 c 0,1.04 -0.52,1.95 -1.32,2.49 H 26.67 C 26.19,61.81 25.62,62 25,62 h -5 v -6 l 0.49,-0.98 C 20.8,54.4 21.44,54 22.15,54 c 0.2,0 0.4,0.03 0.58,0.1 0.74,0.24 1.27,0.93 1.27,1.75 V 56 h 1 c 0.35,0 0.69,0.06 1,0.18 0.43,0.14 0.81,0.39 1.12,0.7 C 27.66,57.42 28,58.17 28,59 Z"
           id="path70" />
      </g>
      <g
         id="g76"
         style="stroke-width:1.50835681">
        <path
           style="fill:#ffeaa7;stroke-width:1.50835681"
           inkscape:connector-curvature="0"
           d="m 36,58 v 2 c 0,0.7 -0.36,1.32 -0.91,1.68 C 34.77,61.88 34.4,62 34,62 H 28 C 27.49,62 27.03,61.81 26.68,61.49 27.48,60.95 28,60.04 28,59 28,58.17 27.66,57.42 27.12,56.88 26.81,56.57 26.43,56.32 26,56.18 V 56.17 51 c 0,-0.55 0.45,-1 1,-1 h 5 3 c 0.55,0 1,0.45 1,1 v 3 2.33 0.2 z"
           id="path74" />
      </g>
      <g
         id="g80"
         style="stroke-width:1.50835681">
        <path
           style="fill:#cf9e76;stroke-width:1.50835681"
           inkscape:connector-curvature="0"
           d="m 56,39 v 5 h -4 v -5 c 0,-0.55 0.45,-1 1,-1 h 2 c 0.55,0 1,0.45 1,1 z"
           id="path78" />
      </g>
      <g
         id="g84"
         style="stroke-width:1.50835681">
        <path
           style="fill:#cf9e76;stroke-width:1.50835681"
           inkscape:connector-curvature="0"
           d="M 44,40.28 V 44 H 40 V 42.76 39 c 0,-0.55 0.45,-1 1,-1 h 2 c 0.55,0 1,0.45 1,1 z"
           id="path82" />
      </g>
      <g
         id="g88"
         style="stroke-width:1.50835681">
        <path
           style="fill:#ccd1d9;stroke-width:1.50835681"
           inkscape:connector-curvature="0"
           d="m 40,44 h 4 v 4 h -4 z"
           id="path86" />
      </g>
      <g
         id="g92"
         style="stroke-width:1.50835681">
        <path
           style="fill:#e6e9ed;stroke-width:1.50835681"
           inkscape:connector-curvature="0"
           d="M 44.67,56 C 42,56 42,58 39.33,58 37.57,58 36.97,57.13 36,56.53 v -0.2 L 40,51 v -3 h 4 v 3 l 2.28,3.04 2.92,3.89 C 47.3,57.58 47.03,56 44.67,56 Z"
           id="path90" />
      </g>
      <g
         id="g96"
         style="stroke-width:1.50835681">
        <path
           style="fill:#e6e9ed;stroke-width:1.50835681"
           inkscape:connector-curvature="0"
           d="m 62,55.87 c 0,0.04 0,0.09 -0.01,0.13 -2.66,-0.01 -2.66,-2 -5.32,-2 -2.67,0 -2.67,2 -5.34,2 -2.56,0 -2.66,-1.85 -5.04,-1.99 0.35,-1.1 1.01,-2.1 1.92,-2.85 L 52,48 v -4 h 4 v 4 l 3.79,3.16 c 1.4,1.17 2.21,2.89 2.21,4.71 z"
           id="path94" />
      </g>
      <g
         id="g100"
         style="stroke-width:1.50835681">
        <path
           style="fill:#4fc1e9;stroke-width:1.50835681"
           inkscape:connector-curvature="0"
           d="m 36,56.53 c 0.97,0.6 1.57,1.47 3.33,1.47 2.67,0 2.67,-2 5.34,-2 2.36,0 2.63,1.58 4.53,1.93 l 0.35,0.47 c 0.29,0.39 0.45,0.86 0.45,1.35 0,0.62 -0.25,1.17 -0.65,1.58 l -0.01,0.01 C 48.93,61.75 48.37,62 47.75,62 H 36.25 C 35.83,62 35.43,61.88 35.09,61.68 35.64,61.32 36,60.7 36,60 v -2 z"
           id="path98" />
      </g>
      <g
         id="g104"
         style="stroke-width:1.50835681">
        <path
           style="fill:#69d6f4;stroke-width:1.50835681"
           inkscape:connector-curvature="0"
           d="m 46.29,54.01 c 2.38,0.14 2.48,1.99 5.04,1.99 2.67,0 2.67,-2 5.34,-2 2.66,0 2.66,1.99 5.32,2 -0.06,3.33 -2.77,6 -6.12,6 h -3.74 c -1,0 -1.95,-0.24 -2.78,-0.67 C 49.75,60.92 50,60.37 50,59.75 50,59.26 49.84,58.79 49.55,58.4 L 49.2,57.93 46.28,54.04 c 0,-0.01 0.01,-0.02 0.01,-0.03 z"
           id="path102" />
      </g>
    </g>
    <g
       id="g112"
       style="stroke-width:1.50835681">
      <path
         inkscape:connector-curvature="0"
         d="M 25,23.764 C 24.619,24.526 23.853,25 23,25 22.147,25 21.381,24.526 21,23.764 l -0.105,-0.211 -1.789,0.895 0.105,0.21 C 19.933,26.103 21.385,27 23,27 c 1.615,0 3.067,-0.897 3.789,-2.342 l 0.105,-0.211 -1.789,-0.895 z"
         id="path108"
         style="stroke-width:1.50835681" />
      <path
         inkscape:connector-curvature="0"
         d="M 60.436,50.394 57,47.532 V 39 c 0,-1.103 -0.897,-2 -2,-2 h -2 c -1.103,0 -2,0.897 -2,2 v 8.532 l -3.436,2.862 c -0.589,0.491 -1.08,1.076 -1.479,1.719 L 45,50.667 v -9.921 c 5.087,-4.198 8,-10.348 8,-16.961 v -1.968 c 1.161,-0.414 2,-1.514 2,-2.816 v -4 c 0,-1.654 -1.346,-3 -3,-3 -0.352,0 -0.686,0.072 -1,0.184 V 8 C 51,6.346 49.654,5 48,5 46.346,5 45,6.346 45,8 v 4.184 C 44.686,12.072 44.352,12 44,12 c -1.654,0 -3,1.346 -3,3 0,1.654 1.346,3 3,3 0.352,0 0.686,-0.072 1,-0.184 V 18 c 0,8.271 -6.729,15 -15,15 H 24.828 L 24.427,30.882 C 27.546,30.357 30.044,28 30.775,24.955 34.271,24.567 37,21.598 37,18 37,16.563 36.557,15.17 35.737,14 36.557,12.83 37,11.437 37,10 37,5.804 33.271,2.429 28.978,3.079 27.666,1.751 25.884,1 24,1 22.563,1 21.171,1.444 20,2.263 18.829,1.444 17.437,1 16,1 12.458,1 9.522,3.645 9.062,7.063 5.645,7.522 3,10.458 3,14 3,16.165 4.002,18.187 5.675,19.502 5.235,20.257 5,21.115 5,22 5,24.444 6.763,26.484 9.084,26.916 9.516,29.237 11.556,31 14,31 c 0.338,0 0.672,-0.045 1,-0.112 v 2.226 C 7.08,34.149 1,40.958 1,49.036 V 52 c 0,6.065 4.935,11 11,11 h 13 c 0.577,0 1.123,-0.128 1.619,-0.349 C 27.043,62.872 27.513,63 28,63 h 6 c 0.39,0 0.76,-0.08 1.102,-0.216 C 35.468,62.922 35.855,63 36.25,63 h 11.5 c 0.641,0 1.236,-0.193 1.74,-0.515 0.836,0.333 1.735,0.515 2.639,0.515 h 3.742 C 59.802,63 63,59.802 63,55.871 63,53.749 62.065,51.752 60.436,50.394 Z M 55,39 v 4 H 53 V 39 Z M 48.846,51.93 53,48.468 V 45 h 2 v 3.468 l 4.154,3.462 c 0.892,0.743 1.492,1.752 1.73,2.863 C 60.545,54.65 60.261,54.445 59.933,54.2 59.22,53.665 58.332,53 56.665,53 c -1.667,0 -2.554,0.666 -3.267,1.2 -0.62,0.464 -1.067,0.8 -2.067,0.8 -0.999,0 -1.446,-0.335 -2.065,-0.8 -0.414,-0.311 -0.894,-0.669 -1.553,-0.913 0.297,-0.51 0.672,-0.973 1.133,-1.357 z m -2.997,3.201 C 45.501,55.051 45.113,55 44.665,55 42.998,55 42.111,55.666 41.398,56.2 40.778,56.664 40.331,57 39.331,57 38.362,57 37.91,56.682 37.32,56.24 L 41,51.333 V 49 h 2 v 2.333 z M 33,45.82 35.314,45.357 C 36.575,45.105 37.808,44.738 39,44.274 v 6.393 l -2,2.667 V 51 c 0,-1.103 -0.897,-2 -2,-2 H 33 Z M 43,47 h -2 v -2 h 2 z m 0,-4 h -2 v -4 h 2 z m 9,-29 c 0.552,0 1,0.449 1,1 v 4 c 0,0.551 -0.448,1 -1,1 -0.552,0 -1,-0.449 -1,-1 v -4 c 0,-0.551 0.448,-1 1,-1 z M 48,7 c 0.552,0 1,0.449 1,1 v 4 H 47 V 8 c 0,-0.551 0.448,-1 1,-1 z m -4,9 c -0.552,0 -1,-0.449 -1,-1 0,-0.551 0.448,-1 1,-1 0.552,0 1,0.449 1,1 0,0.551 -0.448,1 -1,1 z m 3,-2 h 2 v 7 c 0,0.551 -0.448,1 -1,1 -0.552,0 -1,-0.449 -1,-1 z m -0.868,9.329 C 46.646,23.742 47.29,24 48,24 c 1.383,0 2.539,-0.945 2.884,-2.22 0.037,0.015 0.078,0.022 0.116,0.036 v 1.969 c 0,5.512 -2.227,10.67 -6.161,14.432 C 44.534,37.502 43.825,37 43,37 h -2 c -1.103,0 -2,0.897 -2,2 v 3.106 c -1.306,0.57 -2.672,1.008 -4.078,1.29 L 33,43.78 V 41 h -2 v 8 H 27 V 35 h 3 c 7.512,0 13.89,-4.902 16.132,-11.671 z M 25,55 h -0.131 c -0.206,-0.658 -0.65,-1.206 -1.225,-1.564 l -1.6,-11.2 1.048,-1.572 L 25,41.618 Z M 19.593,54.578 19.382,55 h -1.229 l 1.714,-12 h 0.265 l 1.44,10.08 c -0.847,0.173 -1.58,0.701 -1.979,1.498 z M 15.636,35.05 18.312,37.726 15,39.382 v -4.255 c 0.21,-0.032 0.423,-0.055 0.636,-0.077 z M 24.414,35 H 25 v 4.382 l -3.312,-1.656 z m -3.949,6 h -0.93 L 18.71,39.763 20,39.118 21.29,39.763 Z M 15,41.618 16.908,40.664 17.956,42.236 16.132,55 H 15 Z M 29,23.117 C 29,26.361 26.361,29 23.117,29 c -0.634,0 -1.26,-0.102 -1.86,-0.302 l -1.94,-0.647 -0.633,1.897 1.94,0.647 c 0.578,0.192 1.176,0.292 1.779,0.347 l 0.516,2.724 -2.919,2.92 -3,-3 V 21.382 L 13.813,19.789 C 13.312,19.538 13,19.033 13,18.472 13,17.661 13.66,17 14.472,17 H 15 c 0,2.206 1.794,4 4,4 2.206,0 4,-1.794 4,-4 h 2 c 0,2.206 1.794,4 4,4 z M 28,11 c 0.552,0 1,0.449 1,1 v 1 c -1.474,0 -2.75,0.81 -3.444,2 h -3.113 c -0.694,-1.19 -1.97,-2 -3.444,-2 -0.713,0 -1.373,0.203 -1.953,0.531 C 17.275,12.1 18.506,11 20,11 Z m 1,8 c -1.103,0 -2,-0.897 -2,-2 0,-1.103 0.897,-2 2,-2 1.103,0 2,0.897 2,2 0,1.103 -0.897,2 -2,2 z M 19,15 c 1.103,0 2,0.897 2,2 0,1.103 -0.897,2 -2,2 -1.103,0 -2,-0.897 -2,-2 0,-1.103 0.897,-2 2,-2 z m -5,14 c -1.654,0 -3,-1.346 -3,-3 V 25 H 10 C 8.346,25 7,23.654 7,22 7,21.237 7.295,20.506 7.829,19.942 L 8.719,19.004 7.587,18.379 C 5.991,17.497 5,15.819 5,14 5,11.243 7.243,9 10,9 h 1 V 8 c 0,-2.757 2.243,-5 5,-5 1.227,0 2.41,0.455 3.333,1.281 L 20,4.879 20.667,4.281 C 21.59,3.455 22.773,3 24,3 c 1.49,0 2.892,0.658 3.847,1.806 L 28.243,5.283 28.847,5.14 C 32.142,4.365 35,6.871 35,10 c 0,1.228 -0.455,2.412 -1.281,3.332 l -0.6,0.668 0.6,0.668 C 34.545,15.588 35,16.772 35,18 c 0,2.414 -1.721,4.434 -4,4.899 V 20.444 C 32.19,19.75 33,18.474 33,17 33,15.526 32.19,14.25 31,13.556 V 12 C 31,10.346 29.654,9 28,9 H 24 C 23.448,9 23,8.551 23,8 23,7.449 23.448,7 24,7 h 1 V 5 h -1 c -1.654,0 -3,1.346 -3,3 0,0.352 0.072,0.686 0.184,1 H 20 c -2.757,0 -5,2.243 -5,5 v 1 H 14.472 C 12.558,15 11,16.558 11,18.472 c 0,1.324 0.735,2.514 1.919,3.105 L 15,22.618 v 6.188 C 14.679,28.92 14.346,29 14,29 Z M 3,52 V 49.036 C 3,42.754 7.202,37.348 13,35.581 V 55 H 12 C 10.346,55 9,53.654 9,52 V 45 H 7 v 7 c 0,2.757 2.243,5 5,5 h 7 v 4 H 12 C 7.037,61 3,56.962 3,52 Z m 18,9 v -4.764 l 0.382,-0.764 C 21.527,55.181 21.82,55 22.146,55 22.616,55 23,55.383 23,55.854 V 57 h 2 c 1.103,0 2,0.897 2,2 0,1.103 -0.897,2 -2,2 z m 7.444,0 C 28.788,60.409 29,59.732 29,59 29,57.526 28.19,56.25 27,55.556 V 51 h 8 v 2 h -4 v 2 h 4 v 2 h -2 v 2 h 2 v 1 c 0,0.551 -0.448,1 -1,1 z M 47.75,61 H 36.816 C 36.928,60.686 37,60.352 37,60 v -1.572 c 0.576,0.319 1.305,0.572 2.331,0.572 1.667,0 2.554,-0.666 3.267,-1.2 0.62,-0.464 1.067,-0.8 2.067,-0.8 1.001,0 1.448,0.336 2.068,0.8 0.466,0.35 1.047,0.762 1.867,1 L 48.75,59 C 48.911,59.216 49,59.482 49,59.75 49,60.439 48.439,61 47.75,61 Z m 8.121,0 H 52.129 C 51.674,61 51.233,60.936 50.804,60.822 50.923,60.485 51,60.128 51,59.75 51,59.052 50.77,58.359 50.35,57.8 l -0.854,-1.139 c 0.491,0.199 1.08,0.339 1.835,0.339 1.667,0 2.554,-0.666 3.267,-1.2 0.62,-0.464 1.067,-0.8 2.067,-0.8 1.001,0 1.448,0.335 2.068,0.8 0.536,0.402 1.172,0.878 2.164,1.089 C 60.423,59.231 58.35,61 55.871,61 Z"
         id="path110"
         style="stroke-width:1.50835681" />
    </g>
  </g>
</svg>
