<?xml version="1.0" encoding="UTF-8" standalone="no"?>
<!-- Created with Inkscape (http://www.inkscape.org/) -->

<svg
   xmlns:dc="http://purl.org/dc/elements/1.1/"
   xmlns:cc="http://creativecommons.org/ns#"
   xmlns:rdf="http://www.w3.org/1999/02/22-rdf-syntax-ns#"
   xmlns:svg="http://www.w3.org/2000/svg"
   xmlns="http://www.w3.org/2000/svg"
   xmlns:sodipodi="http://sodipodi.sourceforge.net/DTD/sodipodi-0.dtd"
   xmlns:inkscape="http://www.inkscape.org/namespaces/inkscape"
   width="210mm"
   height="297mm"
   viewBox="0 0 210 297"
   version="1.1"
   id="svg8"
   inkscape:version="0.92.5 (2060ec1f9f, 2020-04-08)"
   sodipodi:docname="group_space.svg">
  <defs
     id="defs2">
    <clipPath
       clipPathUnits="userSpaceOnUse"
       id="clipPath1350">
      <ellipse
         style="fill:#000000;fill-opacity:1;stroke:#000000;stroke-width:0.26458332;stroke-opacity:1"
         id="ellipse1352"
         cx="264.02737"
         cy="172.80963"
         rx="283.03275"
         ry="322.07776" />
    </clipPath>
    <clipPath
       clipPathUnits="userSpaceOnUse"
       id="clipPath1354">
      <ellipse
         style="fill:#000000;fill-opacity:1;stroke:#000000;stroke-width:0.26458332;stroke-opacity:1"
         id="ellipse1356"
         cx="-61.640789"
         cy="1058.4875"
         rx="1278.8934"
         ry="1266.5662" />
    </clipPath>
    <clipPath
       clipPathUnits="userSpaceOnUse"
       id="clipPath1358">
      <ellipse
         style="fill:#000000;fill-opacity:1;stroke:#000000;stroke-width:0.26458329;stroke-opacity:1"
         id="ellipse1360"
         cx="1378.0269"
         cy="1444.9081"
         rx="1194.3566"
         ry="1240.3199" />
    </clipPath>
    <clipPath
       clipPathUnits="userSpaceOnUse"
       id="clipPath1358-3">
      <ellipse
         style="fill:#000000;fill-opacity:1;stroke:#000000;stroke-width:0.26458329;stroke-opacity:1"
         id="ellipse1360-6"
         cx="1378.0269"
         cy="1444.9081"
         rx="1194.3566"
         ry="1240.3199" />
    </clipPath>
    <clipPath
       clipPathUnits="userSpaceOnUse"
       id="clipPath1354-7">
      <ellipse
         style="fill:#000000;fill-opacity:1;stroke:#000000;stroke-width:0.26458332;stroke-opacity:1"
         id="ellipse1356-5"
         cx="-61.640789"
         cy="1058.4875"
         rx="1278.8934"
         ry="1266.5662" />
    </clipPath>
    <clipPath
       clipPathUnits="userSpaceOnUse"
       id="clipPath1350-3">
      <ellipse
         style="fill:#000000;fill-opacity:1;stroke:#000000;stroke-width:0.26458332;stroke-opacity:1"
         id="ellipse1352-5"
         cx="264.02737"
         cy="172.80963"
         rx="283.03275"
         ry="322.07776" />
    </clipPath>
  </defs>
  <sodipodi:namedview
     id="base"
     pagecolor="#ffffff"
     bordercolor="#666666"
     borderopacity="1.0"
     inkscape:pageopacity="0.0"
     inkscape:pageshadow="2"
     inkscape:zoom="0.35"
     inkscape:cx="325.71429"
     inkscape:cy="517.14285"
     inkscape:document-units="mm"
     inkscape:current-layer="layer1-35"
     showgrid="false"
     inkscape:window-width="1848"
     inkscape:window-height="1016"
     inkscape:window-x="72"
     inkscape:window-y="27"
     inkscape:window-maximized="1" />
  <metadata
     id="metadata5">
    <rdf:RDF>
      <cc:Work
         rdf:about="">
        <dc:format>image/svg+xml</dc:format>
        <dc:type
           rdf:resource="http://purl.org/dc/dcmitype/StillImage" />
        <dc:title></dc:title>
      </cc:Work>
    </rdf:RDF>
  </metadata>
  <g
     inkscape:label="Layer 1"
     inkscape:groupmode="layer"
     id="layer1">
    <g
       id="layer1-35"
       inkscape:label="Layer 1"
       transform="translate(7.009983,9.8273791)">
      <g
         id="g1330"
         transform="translate(0.75595239,2.2678576)">
        <g
           clip-path="url(#clipPath1358-3)"
           style="stroke-width:1.67155421"
           id="surface1"
           transform="matrix(0.07880065,0,0,0.08136581,-7.1579843,8.588649)">
          <path
             id="path914"
             style="fill:#2382c7;fill-opacity:1;fill-rule:nonzero;stroke:none;stroke-width:1.67155421"
             d="M 579.43359,259.86719 C 570.62891,188.30859 535.10156,122.73438 479.98047,76.273438 l -0.98828,1.527343 C 366.51953,231.70312 228.13672,364.88672 70.027344,471.37891 116.6875,531.03125 185.11719,569.73437 260.28516,578.97656 348.27734,455.67187 456.12109,347.83984 579.43359,259.86719 Z m 0,0"
             inkscape:connector-curvature="0" />
          <path
             id="path916"
             style="fill:#288fde;fill-opacity:1;fill-rule:nonzero;stroke:none;stroke-width:1.67155421"
             d="m 478.99219,77.800781 0.98828,-1.53125 C 451.64844,52.304688 418.91797,34.089844 383.61719,22.640625 283.33594,159.16797 160.21094,277.35937 19.671875,371.96484 c 10.082031,36.13672 27.1875,69.9375 50.34375,99.45313 C 228.13672,364.91797 366.51953,231.72266 478.99219,77.800781 Z m 0,0"
             inkscape:connector-curvature="0" />
          <path
             id="path918"
             style="fill:#68ccd7;fill-opacity:1;fill-rule:nonzero;stroke:none;stroke-width:1.67155421"
             d="m 383.65625,22.640625 c -28.50781,-9.25 -58.30078,-13.949219 -88.26953,-13.9375 -7.97656,0 -15.85156,0.414063 -23.69141,1.054687 -75.6914,94.339848 -163.21875,178.542968 -260.41406,250.535158 -1.410156,11.50781 -2.132812,23.08594 -2.160156,34.67578 0,26.03125 3.542968,51.93359 10.550781,76.99609 C 160.22266,277.35937 283.36328,159.17969 383.65625,22.640625 Z m 0,0"
             inkscape:connector-curvature="0" />
          <path
             id="path920"
             style="fill:#288fde;fill-opacity:1;fill-rule:nonzero;stroke:none;stroke-width:1.67155421"
             d="M 271.69531,9.757812 C 136.48828,21.003906 27.757812,125.61719 11.285156,260.29297 108.47656,188.28906 196.00391,104.08984 271.69531,9.757812 Z m 0,0"
             inkscape:connector-curvature="0" />
          <path
             id="path922"
             style="fill:#2178b8;fill-opacity:1;fill-rule:nonzero;stroke:none;stroke-width:1.67155421"
             d="m 573.82422,361.38281 -2.04297,1.17578 c -83.42188,57.48828 -156.0625,129.22266 -214.58984,211.91407 107.03515,-23.75 191.1289,-106.46875 216.63281,-213.08985 z m 0,0"
             inkscape:connector-curvature="0" />
          <path
             id="path924"
             style="fill:#2178b8;fill-opacity:1;fill-rule:nonzero;stroke:none;stroke-width:1.67155421"
             d="m 571.78125,362.55859 2.04297,-1.17578 c 7.97656,-33.22656 9.88281,-67.61719 5.60937,-101.51562 -123.3125,87.98047 -231.16406,195.83593 -319.14843,319.14843 32.32031,4.07422 65.10156,2.53516 96.90625,-4.54296 58.53515,-82.69922 131.16796,-154.4336 214.58984,-211.91407 z m 0,0"
             inkscape:connector-curvature="0" />
          <path
             id="path926"
             style="fill:#2178b8;fill-opacity:1;fill-rule:nonzero;stroke:none;stroke-width:1.67155421"
             d="m 473.01172,70.566406 c 0,0.769532 0.0586,1.53125 0.0586,2.300782 C 473.05078,288.84766 316.03906,472.78125 102.74219,506.70703 219.28906,613.53516 400.36719,605.65625 507.19531,489.11719 614.02344,372.57812 606.14453,191.48828 489.60547,84.664062 484.25391,79.746094 478.72656,75.046875 473.01172,70.566406 Z m 0,0"
             inkscape:connector-curvature="0" />
          <path
             id="path928"
             style="fill:#28669c;fill-opacity:1;fill-rule:nonzero;stroke:none;stroke-width:1.67155421"
             d="m 343.21484,577.17969 c 9.71094,-1.62891 19.32813,-3.77344 28.8125,-6.40625 54.96485,-75.25 121.82032,-141.04297 197.92969,-194.8125 2.77344,-9.41407 5.05469,-18.97266 6.83203,-28.625 -91.59765,61.27343 -170.83203,139.24609 -233.57422,229.84375 z m 0,0"
             inkscape:connector-curvature="0" />
          <path
             id="path930"
             style="fill:#28669c;fill-opacity:1;fill-rule:nonzero;stroke:none;stroke-width:1.67155421"
             d="m 580.60937,271.34766 c -0.62109,-7.54297 -1.49218,-15.01563 -2.68359,-22.38672 -127.20312,90.26953 -238.27344,201.34375 -328.54687,328.54297 7.375,1.19531 14.80859,2.0625 22.38671,2.68359 85.74219,-118.82813 190.02344,-223.10938 308.84375,-308.83984 z m 0,0"
             inkscape:connector-curvature="0" />
          <path
             id="path932"
             style="fill:#28669c;fill-opacity:1;fill-rule:nonzero;stroke:none;stroke-width:1.67155421"
             d="m 392.23437,27.644531 c 0.22657,-0.316406 0.4336,-0.640625 0.6211,-0.984375 l 0.42578,-0.773437 c -6.4375,-2.375 -13,-4.351563 -19.65234,-6.265625 C 276.09766,154.01953 155.32422,269.91797 17.019531,361.83594 c 1.617188,6.77343 3.445313,13.46484 5.539063,20.03906 C 166.3125,287.26953 291.59766,167.22656 392.23437,27.644531 Z m 0,0"
             inkscape:connector-curvature="0" />
          <path
             id="path934"
             style="fill:#28669c;fill-opacity:1;fill-rule:nonzero;stroke:none;stroke-width:1.67155421"
             d="m 486.96094,83.664062 0.62109,-0.835937 C 482.69531,78.394531 477.61328,74.1875 472.42969,70.101562 l -1.38282,1.875 C 359.21484,225.1875 221.48047,357.69141 64.046875,463.51172 c 3.898437,5.32812 7.964844,10.52344 12.199219,15.57422 C 235.07422,372.125 374.0625,238.31641 486.96094,83.664062 Z m 0,0"
             inkscape:connector-curvature="0" />
          <path
             id="path936"
             style="fill:#28669c;fill-opacity:1;fill-rule:nonzero;stroke:none;stroke-width:1.67155421"
             d="m 280.73047,14.300781 3.64062,-5.324219 C 275.35937,9.324219 266.47656,10.082031 257.71875,11.25 186.08203,99.230469 104.01172,178.18359 13.316406,246.36328 c -1.5,8.77734 -2.597656,17.66016 -3.277344,26.65234 l 4.9375,-3.17968 C 114.28906,196.5625 203.625,110.66406 280.73047,14.300781 Z m 0,0"
             inkscape:connector-curvature="0" />
          <path
             id="path938"
             style="fill:#68ccd7;fill-opacity:1;fill-rule:nonzero;stroke:none;stroke-width:1.67155421"
             d="M 578.76172,11.59375 C 550.64844,-16.519531 486.96094,11.800781 438.875,40.222656 l -6.51172,3.414063 c 6.71875,3.671875 13.25391,7.632812 19.63281,11.847656 C 518.35937,16.875 553.79687,14.546875 564.80469,25.5625 594.51562,55.273438 516.97656,199.03125 358.20703,357.80078 199.4375,516.57031 55.703125,594.06641 25.972656,564.38672 15.042969,553.41797 17.246094,518.05859 55.882812,451.56641 51.734375,445.23047 47.847656,438.72266 44.203125,432.05078 l -4.105469,7.35547 c -28.210937,47.98047 -55.980468,111.03125 -28.082031,138.9375 8.785156,8.11328 20.5,12.28906 32.433594,11.57812 71.468751,0 212.175781,-102.66015 327.726561,-218.15234 C 509.59375,234.37891 628.63281,61.464844 578.76172,11.59375 Z m 0,0"
             inkscape:connector-curvature="0" />
        </g>
        <g
           clip-path="url(#clipPath1354-7)"
           style="stroke-width:1.16209328"
           id="surface1-3"
           transform="matrix(0.0735918,0,0,0.07967972,105.96769,41.814779)">
          <path
             id="path1106"
             style="fill:#cfd7de;fill-opacity:1;fill-rule:nonzero;stroke:none;stroke-width:1.16209328"
             d="m 483.24219,158.00391 c 0,-38.12891 -30.90625,-69.03516 -69.02344,-69.046879 -18.31641,0 -35.87891,7.269531 -48.82813,20.230469 l -217.45703,216.46875 98.61719,98.62109 216.47266,-217.45703 c 12.96875,-12.9414 20.23828,-30.5039 20.21875,-48.8164 z m 0,0"
             inkscape:connector-curvature="0" />
          <path
             id="path1108"
             style="fill:#c2c7cf;fill-opacity:1;fill-rule:nonzero;stroke:none;stroke-width:1.16209328"
             d="m 483.24219,158.00391 c 0,38.125 -30.90625,69.03515 -69.03516,69.03515 -38.125,0 -69.03516,-30.91015 -69.03516,-69.03515 0,-38.12891 30.91016,-69.03516 69.03516,-69.03516 38.12891,0 69.03516,30.90625 69.03516,69.03516 z m 0,0"
             inkscape:connector-curvature="0" />
          <path
             id="path1110"
             style="fill:#288fde;fill-opacity:1;fill-rule:nonzero;stroke:none;stroke-width:1.16209328"
             d="M 0,88.96875 88.757812,0.210938 246.54297,157.99609 157.78516,246.75391 Z m 0,0"
             inkscape:connector-curvature="0" />
          <path
             id="path1112"
             style="fill:#c2c7cf;fill-opacity:1;fill-rule:nonzero;stroke:none;stroke-width:1.16209328"
             d="m 133.13281,399.625 44.37891,-44.37891 39.44922,39.44922 -44.37891,44.37891 z m 0,0"
             inkscape:connector-curvature="0" />
          <path
             id="path1114"
             style="fill:#cfd7de;fill-opacity:1;fill-rule:nonzero;stroke:none;stroke-width:1.16209328"
             d="M 147.93359,572.20703 0.00390625,424.27734 14.796875,409.48437 c 40.847656,-40.84765 107.082035,-40.84765 147.929685,0 40.84766,40.84766 40.84766,107.08204 0,147.92969 z m 0,0"
             inkscape:connector-curvature="0" />
          <path
             id="path1116"
             style="fill:#c2c7cf;fill-opacity:1;fill-rule:nonzero;stroke:none;stroke-width:1.16209328"
             d="m 166.60156,409.48437 c -0.64062,-0.64062 -1.33984,-1.18359 -1.97265,-1.80468 7.91796,40.91797 -5.01954,83.09765 -34.51563,112.53515 l -15.14844,15.14844 36.84375,36.84375 14.79297,-14.79297 c 40.84766,-40.83594 40.85938,-107.0625 0.0195,-147.91015 0,0 -0.008,-0.0117 -0.0195,-0.0195 z m 0,0"
             inkscape:connector-curvature="0" />
          <path
             id="path1118"
             style="fill:#288fde;fill-opacity:1;fill-rule:nonzero;stroke:none;stroke-width:1.16209328"
             d="m 325.4375,414.41406 88.75781,-88.75781 157.78516,157.78516 -88.75781,88.75781 z m 0,0"
             inkscape:connector-curvature="0" />
          <path
             id="path1120"
             style="fill:#2178b8;fill-opacity:1;fill-rule:nonzero;stroke:none;stroke-width:1.16209328"
             d="M 355.03516,444 483.24219,572.20703 572,483.44922 532.55078,444 Z m 0,0"
             inkscape:connector-curvature="0" />
          <path
             id="path1122"
             style="fill:#2178b8;fill-opacity:1;fill-rule:nonzero;stroke:none;stroke-width:1.16209328"
             d="m 39.449219,128.41797 118.347651,118.34375 88.75782,-88.75781 -29.58594,-29.58594 z m 0,0"
             inkscape:connector-curvature="0" />
          <path
             id="path1124"
             style="fill:#c2c7cf;fill-opacity:1;fill-rule:nonzero;stroke:none;stroke-width:1.16209328"
             d="m 176.67187,162.93359 37.40625,-37.40625 -13.94531,-13.94531 -37.40625,37.40625 -25.5039,-25.5039 L 174.62891,86.078125 160.68359,72.132812 123.27734,109.53906 97.773438,84.035156 135.17969,46.628906 121.23828,32.6875 83.832031,70.09375 51.355469,37.617188 37.410156,51.5625 l 32.476563,32.472656 -37.40625,37.410154 13.941406,13.94141 37.410156,-37.406251 25.499999,25.503911 -37.406249,37.40624 13.945313,13.94532 37.406246,-37.40625 25.50391,25.5039 -37.40625,37.40625 13.94531,13.94532 37.40625,-37.40625 66.99219,66.99218 13.94531,-13.94531 z m 0,0"
             inkscape:connector-curvature="0" />
          <path
             id="path1126"
             style="fill:#c2c7cf;fill-opacity:1;fill-rule:nonzero;stroke:none;stroke-width:1.16209328"
             d="m 502.11719,488.37891 37.40625,-37.40625 -13.94532,-13.94532 -37.40625,37.40625 -25.5039,-25.5 37.41015,-37.41015 -13.94531,-13.94141 -37.40625,37.40625 -25.5039,-25.50391 37.40625,-37.40625 -13.94532,-13.94531 -37.40625,37.40625 -66.99218,-66.99219 -13.94532,13.94532 66.99219,66.99218 -37.40625,37.40625 13.94531,13.94532 37.40625,-37.40625 25.50391,25.5039 -37.40625,37.40625 13.94141,13.94532 37.41015,-37.40625 25.5,25.5 -37.40625,37.41015 13.94531,13.94141 37.40625,-37.40625 32.47657,32.47656 13.94531,-13.94531 z m 0,0"
             inkscape:connector-curvature="0" />
          <path
             id="path1128"
             style="fill:#c2c7cf;fill-opacity:1;fill-rule:nonzero;stroke:none;stroke-width:1.16209328"
             d="m 228.47656,406.19922 18.07813,18.07812 216.46875,-217.45703 -17.58203,-17.58594 z m 0,0"
             inkscape:connector-curvature="0" />
          <path
             id="path1130"
             style="fill:#a6b0bd;fill-opacity:1;fill-rule:nonzero;stroke:none;stroke-width:1.16209328"
             d="m 414.20703,197.44922 c -21.78516,0 -39.44531,-17.66016 -39.44531,-39.44531 0,-21.78516 17.66015,-39.44922 39.44531,-39.44922 21.78516,0 39.44922,17.66406 39.44922,39.44922 0,21.78515 -17.66406,39.44531 -39.44922,39.44531 z m 0,-59.17188 c -10.89844,0 -19.72266,8.82813 -19.72266,19.72266 0,10.89844 8.82422,19.72656 19.72266,19.72656 10.89844,0 19.72656,-8.82812 19.72656,-19.72656 0,-10.89453 -8.82812,-19.72266 -19.72656,-19.72266 z m 0,0"
             inkscape:connector-curvature="0" />
          <path
             id="path1132"
             style="fill:#a6b0bd;fill-opacity:1;fill-rule:nonzero;stroke:none;stroke-width:1.16209328"
             d="m 348.0625,322.76562 13.94531,-13.9414 -98.62109,-98.6211 -13.94531,13.94532 17.68359,17.68359 -25.50391,25.5 -17.67968,-17.67969 -13.94532,13.94141 98.61719,98.62109 13.94531,-13.94531 -17.67968,-17.68359 25.5,-25.5 z m -66.99219,-66.99218 10.71094,10.71093 -25.50391,25.50391 -10.71093,-10.71094 z m 9.86328,60.87109 -10.71093,-10.71094 25.5039,-25.5039 10.71094,10.71093 z m 0,0"
             inkscape:connector-curvature="0" />
          <path
             id="path1134"
             style="fill:#a6b0bd;fill-opacity:1;fill-rule:nonzero;stroke:none;stroke-width:1.16209328"
             d="m 170.54297,303.05078 13.94531,-13.94531 98.61719,98.61719 -13.94531,13.94531 z m 0,0"
             inkscape:connector-curvature="0" />
        </g>
        <g
           clip-path="url(#clipPath1350-3)"
           id="g912"
           transform="matrix(0.33252717,0,0,0.31333935,13.635156,72.006709)">
          <path
             id="path815"
             d="m 262.67,11 c -117.64,0 -213,95.65 -213,213.63 a 213.488,213.488 0 0 0 82.21,168.62 h 0.35 v -28.64 a 223.825,223.825 0 0 0 69.27,33.36 l 109,3.03 0.07,0.34 78.28,-4.58 c 1.56,-1.15 3.09,-2.32 4.61,-3.51 A 213.488,213.488 0 0 0 475.67,224.63 C 475.67,106.65 380.31,11 262.67,11 Z"
             inkscape:connector-curvature="0"
             style="fill:#e5f5fd" />
          <path
             id="path817"
             d="m 189.19,331.63 a 82.605,82.605 0 0 1 -12.91,-29.82 l -4.01,-18.69 -0.38,-1.78 v -55.1 h -2.57 v -23.67 a 56.053,56.053 0 0 1 22.85,-45.14 l -2.1,30.43 c 17.33,-4.33 36.09,-30.84 42.1,-39.95 a 3.193,3.193 0 0 1 4.76,-0.66 44.737,44.737 0 0 0 45.32,7.92 c 21.79,-8.36 46.61,1.28 56.44,22.45 a 69.328,69.328 0 0 1 6.43,29.27 v 29.5 h 4.4 a 16.4,16.4 0 0 1 11.65,4.83 16.476,16.476 0 0 1 -11.65,28.13 h -4.4 l -6.95,32.46 a 82.648,82.648 0 0 1 -27.76,46.08 c -0.38,0.32 -0.76,0.64 -1.15,0.95 A 82.8,82.8 0 0 1 189.19,331.63 Z"
             inkscape:connector-curvature="0"
             style="fill:#ffd8b7" />
          <path
             id="path819"
             d="m 232.54,346.61 a 82.7,82.7 0 0 1 -26.26,-44.8 l -4.01,-18.69 -0.38,-1.78 -1,-55.1 -0.57,-23.67 c 0,-7.7 0.59,-15.2 3.551,-22.088 -4.525,3.522 -9.213,6.232 -13.8,7.378 l 2.1,-30.43 a 56.053,56.053 0 0 0 -22.85,45.14 v 23.67 h 2.57 v 55.1 l 0.38,1.78 4.01,18.69 A 82.75,82.75 0 0 0 272.2,365.868 82.8,82.8 0 0 1 232.54,346.61 Z"
             inkscape:connector-curvature="0"
             style="fill:#efc597" />
          <path
             id="path821"
             d="M 467.61,40.45 A 39.261,39.261 0 0 0 483.02,50 39.464,39.464 0 0 0 458.09,75 39.471,39.471 0 0 0 433.17,50 39.224,39.224 0 0 0 448.57,40.45 39.5,39.5 0 0 0 458.09,25 39.5,39.5 0 0 0 467.61,40.45 Z"
             inkscape:connector-curvature="0"
             style="fill:#3090fc" />
          <path
             id="path823"
             d="M 446.55,447.48 V 501 H 78.79 v -53.52 a 54.16,54.16 0 0 1 53.09,-54.23 c 0.11,0.09 0.23,0.18 0.35,0.27 v 30.98 l -0.15,0.21 a 224.648,224.648 0 0 0 256.97,3.1 l -0.2,-0.3 v -30.75 c 1.56,-1.15 3.09,-2.32 4.61,-3.51 a 54.16,54.16 0 0 1 53.09,54.23 z"
             inkscape:connector-curvature="0"
             style="fill:#50a6ea" />
          <path
             id="path825"
             d="m 388.85,427.51 0.2,0.3 a 224.648,224.648 0 0 1 -256.97,-3.1 l 0.15,-0.21 v -30.98 a 212.546,212.546 0 0 0 256.62,3.24 z"
             inkscape:connector-curvature="0"
             style="fill:#475673" />
          <path
             id="path827"
             d="m 132.23,393.25 v -28.64 a 224.473,224.473 0 0 0 256.42,3.27 l 0.2,0.93 v 27.95 a 212.546,212.546 0 0 1 -256.62,-3.24 z"
             inkscape:connector-curvature="0"
             style="fill:#5f6a78" />
          <path
             id="path829"
             d="m 310.5,401 v -53 l -0.09,-0.11 c -0.38,0.32 -0.76,0.64 -1.15,0.95 L 201.5,346 v 51.97 a 226.152,226.152 0 0 0 109.07,3.37 z"
             inkscape:connector-curvature="0"
             style="fill:#efc597" />
          <path
             id="path831"
             d="M 58.7,356.8 A 39.407,39.407 0 0 0 71.61,369.54 39.38,39.38 0 0 0 41.79,388.38 39.549,39.549 0 0 0 23,358.46 39.376,39.376 0 0 0 52.83,339.62 39.546,39.546 0 0 0 58.7,356.8 Z"
             inkscape:connector-curvature="0"
             style="fill:#3090fc" />
          <path
             id="path833"
             d="m 362.94,158.64 a 152.232,152.232 0 0 1 -8.72,78.43 16.586,16.586 0 0 0 -4.7,-0.68 h -4.4 v -29.5 a 69.328,69.328 0 0 0 -6.43,-29.27 c -9.83,-21.17 -34.65,-30.81 -56.44,-22.45 a 44.737,44.737 0 0 1 -45.32,-7.92 3.193,3.193 0 0 0 -4.76,0.66 c -6.01,9.11 -24.77,35.62 -42.1,39.95 l 2.1,-30.43 a 56.053,56.053 0 0 0 -22.85,45.14 v 23.67 h -7.33 a 28.181,28.181 0 0 0 -6.79,0.82 l -0.17,-0.78 A 124.488,124.488 0 0 1 146,179.47 C 146,115.72 193.21,64.05 251.45,64.05 a 98.735,98.735 0 0 1 59.07,19.79 10.773,10.773 0 0 1 3.24,3.9 11.209,11.209 0 0 1 1.15,4.95 11.123,11.123 0 0 0 7.68,10.58 c 0,0 15.53,5.35 16.22,6.27 4.82,6.42 21.69,33.1 24.13,49.1 z"
             inkscape:connector-curvature="0"
             style="fill:#6d7486" />
          <path
             id="path835"
             d="m 171.89,281.34 v 1.86 h -9.94 a 28.434,28.434 0 0 1 -28.4,-28.44 v -0.08 a 28.429,28.429 0 0 1 28.44,-28.44 h 9.9 z"
             inkscape:connector-curvature="0"
             style="fill:#ed6337" />
          <ellipse
             id="ellipse837"
             ry="7.1199999"
             rx="7.0999999"
             cy="331.63"
             cx="238.63"
             style="fill:#3090fc" />
          <path
             id="path839"
             d="m 79.67,224.63 c 0,-112.921 87.362,-205.374 198,-213.095 -4.956,-0.346 -9.956,-0.535 -15,-0.535 -117.64,0 -213,95.65 -213,213.63 a 213.488,213.488 0 0 0 82.21,168.62 h 0.35 V 365.131 A 213.165,213.165 0 0 1 79.67,224.63 Z"
             inkscape:connector-curvature="0"
             style="fill:#a6b7d0" />
          <path
             id="path841"
             d="m 132.23,402.781 v -9.261 c -0.12,-0.09 -0.24,-0.18 -0.35,-0.27 A 54.16,54.16 0 0 0 78.79,447.48 V 501 h 30 v -53.52 a 54.218,54.218 0 0 1 23.44,-44.699 z"
             inkscape:connector-curvature="0"
             style="fill:#72bcef" />
          <g
             id="g873"
             style="fill:#284268">
            <path
               id="path843"
               d="m 224.967,236.574 a 6,6 0 0 0 -6,6 7.338,7.338 0 0 1 -14.676,0 6,6 0 0 0 -12,0 19.338,19.338 0 1 0 38.676,0 6,6 0 0 0 -6,-6 z"
               inkscape:connector-curvature="0" />
            <path
               id="path845"
               d="m 300.371,261.912 a 19.36,19.36 0 0 0 19.338,-19.338 6,6 0 0 0 -12,0 7.338,7.338 0 0 1 -14.676,0 6,6 0 1 0 -12,0 19.36,19.36 0 0 0 19.338,19.338 z"
               inkscape:connector-curvature="0" />
            <path
               id="path847"
               d="m 102.973,153.327 a 6,6 0 0 0 -7.811,3.316 180.691,180.691 0 0 0 -13.151,67.986 6,6 0 0 0 12,0 168.739,168.739 0 0 1 12.278,-63.492 6,6 0 0 0 -3.316,-7.81 z"
               inkscape:connector-curvature="0" />
            <path
               id="path849"
               d="m 97.067,256.869 a 6,6 0 1 0 -11.783,2.267 180.949,180.949 0 0 0 4.975,19.77 6.0001895,6.0001895 0 0 0 11.453,-3.583 169.006,169.006 0 0 1 -4.645,-18.454 z"
               inkscape:connector-curvature="0" />
            <path
               id="path851"
               d="m 407.747,389.248 c 3.356,-3 6.642,-6.094 9.861,-9.323 a 220.1,220.1 0 0 0 -0.057,-310.591 219.009,219.009 0 0 0 -373.88,155.295 218.4,218.4 0 0 0 64.02,155.3 c 3.217,3.225 6.6,6.323 9.99,9.317 A 60.365,60.365 0 0 0 73,447.479 V 501 a 5.822,5.822 0 0 0 5.786,6 h 367.768 c 3.313,0 6.446,-2.687 6.446,-6 V 447.479 A 60.22,60.22 0 0 0 407.747,389.248 Z M 55.555,224.629 C 55.555,110.142 148.473,17 262.612,17 c 114.139,0 207.1,93.142 207.1,207.629 A 206.427,206.427 0 0 1 395,384.294 v -15.481 a 6.075,6.075 0 0 0 -0.212,-1.263 l -0.239,-0.929 a 6.026,6.026 0 0 0 -9.259,-3.7 217.366,217.366 0 0 1 -69.29,31 v -43.392 a 88.8,88.8 0 0 0 27.782,-47.464 l 6.067,-27.719 a 22.472,22.472 0 0 0 11.858,-41.314 158.394,158.394 0 0 0 7.152,-76.3 c -2.835,-18.574 -21.873,-47.288 -25.258,-51.8 -1.156,-1.541 -1.789,-2.389 -19.055,-8.345 -0.035,-0.012 -0.068,-0.024 -0.1,-0.035 A 5.1,5.1 0 0 1 320.91,92.686 17.054,17.054 0 0 0 314.098,79.017 104.6,104.6 0 0 0 251.455,58.043 C 190,58.049 140,112.517 140,179.467 a 130.2,130.2 0 0 0 7.535,43.963 34.49,34.49 0 0 0 8.465,65.233 v 29.021 c 0,11 8.878,20.316 19.852,20.316 h 10.3 c 2.823,3 5.846,6.964 8.846,10.259 v 41.478 a 217.625,217.625 0 0 1 -58.031,-29.123 6,6 0 0 0 -9.615,0.193 l -0.264,0.206 a 7.949,7.949 0 0 0 -1.09,4.814 v 14.807 A 208.147,208.147 0 0 1 55.555,224.629 Z m 207.076,207.63 A 206.831,206.831 0 0 1 138,390.444 v -14.51 a 231.426,231.426 0 0 0 245,2.818 V 393.59 A 206.257,206.257 0 0 1 262.631,432.259 Z M 383,408.306 v 16.441 A 219.315,219.315 0 0 1 138,421.7 v -16.286 c 37,25.245 79.518,38.845 124.631,38.845 A 219.148,219.148 0 0 0 383,408.306 Z M 238.63,318.739 c -5.065,0 -9.457,2.261 -11.637,7.261 H 192.447 A 80.979,80.979 0 0 1 182.2,300.736 L 178,280.7 v -54.464 a 5.429,5.429 0 0 0 -3,-4.918 v -18.745 a 50.335,50.335 0 0 1 9.926,-29.664 L 184,187.449 a 6.054,6.054 0 0 0 7.5,6.233 c 6.182,-1.545 22.627,-8.526 43.944,-39.9 a 50.712,50.712 0 0 0 48.95,6.991 c 18.963,-7.28 40.361,1.228 48.784,19.373 A 63,63 0 0 1 339,206.885 v 29.5 c 0,3.313 2.81,5.612 6.123,5.612 h 4.4 a 10.5,10.5 0 0 1 0,21 h -4.4 a 6.158,6.158 0 0 0 -5.866,4.917 L 332.3,300.462 A 76.981,76.981 0 0 1 208.955,344.343 C 206.44,342.311 204.067,340 201.843,338 h 25.152 a 13.365,13.365 0 0 0 11.637,6.934 13.2,13.2 0 0 0 13.1,-13.214 13,13 0 0 0 -13.102,-12.981 z M 163,202.573 V 220 h -1.008 c -0.945,0 -1.879,0.167 -2.8,0.242 A 117.49,117.49 0 0 1 152,179.467 c 0,-60.333 44.613,-109.418 99.451,-109.418 a 92.678,92.678 0 0 1 55.5,18.614 5,5 0 0 1 1.96,4.029 17.07,17.07 0 0 0 11.779,16.262 c 5.336,1.841 11.681,4.16 14.068,5.2 6.163,8.579 20.161,32.056 22.2,45.392 3.5,22.949 1.05,46.442 -5.95,68.406 v -21.067 a 74.9,74.9 0 0 0 -6.931,-31.793 c -11.069,-23.844 -39.165,-35.054 -64,-25.523 a 38.7,38.7 0 0 1 -39.236,-6.857 9.185,9.185 0 0 0 -13.68,1.894 c -8.377,12.693 -19.912,26.749 -30.41,33.622 l 1.405,-20.382 a 6,6 0 0 0 -3.092,-5.67 6.281,6.281 0 0 0 -6.6,0.422 A 62.392,62.392 0 0 0 163,202.573 Z M 166,232 v 45 h -4.008 a 22.5,22.5 0 0 1 0,-45 z m 2,59.584 2.436,11.668 A 88.74,88.74 0 0 0 178.6,326 h -2.75 c -4.357,0 -7.852,-3.937 -7.852,-8.316 z m 136,67.994 v 36.979 a 220.521,220.521 0 0 1 -97,-3.291 V 358 A 90.041,90.041 0 0 0 256.722,373.233 88.852,88.852 0 0 0 304,359.578 Z M 441,495 h -65 v -26.185 a 6,6 0 0 0 -12,0 V 495 H 162 v -26.185 a 6,6 0 0 0 -12,0 V 495 H 85 v -47.521 a 47.846,47.846 0 0 1 41,-47.739 v 23.64 c 0,2.284 0.451,4.757 2.475,6.206 a 230.923,230.923 0 0 0 264,3.188 c 2.166,-1.475 2.527,-4.117 2.527,-6.514 v -26.484 c 0.173,-0.131 0.338,-0.271 0.511,-0.4 25.368,1.781 45.489,22.668 45.489,48.1 z"
               inkscape:connector-curvature="0" />
            <path
               id="path853"
               d="m 431.263,55.69 a 33.632,33.632 0 0 1 21.135,21.2 6,6 0 0 0 11.387,0 33.632,33.632 0 0 1 21.135,-21.2 6,6 0 0 0 0,-11.38 33.632,33.632 0 0 1 -21.135,-21.2 6,6 0 0 0 -11.387,0 33.632,33.632 0 0 1 -21.135,21.2 6,6 0 0 0 0,11.38 z M 458.092,38.308 A 45.92,45.92 0 0 0 469.76,50 45.92,45.92 0 0 0 458.092,61.692 45.94,45.94 0 0 0 446.423,50 45.94,45.94 0 0 0 458.092,38.308 Z"
               inkscape:connector-curvature="0" />
            <path
               id="path855"
               d="m 77.465,370.869 a 6,6 0 0 0 -2.733,-6.458 33.7,33.7 0 0 1 -15.932,-25.378 6,6 0 0 0 -11.106,-2.516 33.562,33.562 0 0 1 -25.285,15.975 6,6 0 0 0 -2.526,11.1 33.7,33.7 0 0 1 15.933,25.378 6,6 0 0 0 11.106,2.516 33.564,33.564 0 0 1 25.285,-15.975 6,6 0 0 0 5.258,-4.642 z M 44.729,375.4 a 46,46 0 0 0 -8.8,-14 45.843,45.843 0 0 0 13.956,-8.8 46.006,46.006 0 0 0 8.8,14 45.848,45.848 0 0 0 -13.956,8.8 z"
               inkscape:connector-curvature="0" />
            <path
               id="path857"
               d="m 486,445.25 a 6,6 0 0 0 -6,6 v 0.168 a 6,6 0 0 0 12,0 v -0.168 a 6,6 0 0 0 -6,-6 z"
               inkscape:connector-curvature="0" />
            <path
               id="path859"
               d="m 486.436,433.479 a 6,6 0 0 0 6,-6 60.3,60.3 0 0 0 -34.436,-54.492 6.0000345,6.0000345 0 0 0 -5.139,10.844 48.245,48.245 0 0 1 27.575,43.648 6,6 0 0 0 6,6 z"
               inkscape:connector-curvature="0" />
            <ellipse
               id="ellipse861"
               ry="11"
               rx="10.985"
               cy="103"
               cx="476.03799" />
            <ellipse
               id="ellipse863"
               ry="8"
               rx="7.994"
               cy="475"
               cx="487.00601" />
            <ellipse
               id="ellipse865"
               ry="11"
               rx="10.985"
               cy="75"
               cx="42.321999" />
            <ellipse
               id="ellipse867"
               ry="11"
               rx="10.985"
               cy="432"
               cx="42.321999" />
            <path
               id="path869"
               d="m 427.81,192.879 c 0.886,4.669 1.585,9.444 2.074,14.191 a 6.0001014,6.0001014 0 0 0 11.937,-1.23 c -0.524,-5.085 -1.272,-10.2 -2.222,-15.2 a 6,6 0 0 0 -11.789,2.24 z"
               inkscape:connector-curvature="0" />
            <path
               id="path871"
               d="m 399.2,126.216 a 169.377,169.377 0 0 1 12.482,20.265 c 2.394,4.584 4.606,9.343 6.572,14.145 a 6,6 0 1 0 11.1,-4.546 c -2.106,-5.145 -4.475,-10.245 -7.042,-15.155 A 181.1,181.1 0 0 0 388.9,95.782 a 6,6 0 0 0 -8.423,8.547 169.751,169.751 0 0 1 18.723,21.887 z"
               inkscape:connector-curvature="0" />
          </g>
        </g>
        <g
           style="stroke-width:4.59379959"
           transform="matrix(0.08025413,0,0,0.07326456,8.6091457,29.229539)"
           id="surface1-6">
          <path
             inkscape:connector-curvature="0"
             d="M 579.43359,259.86719 C 570.62891,188.30859 535.10156,122.73438 479.98047,76.273438 l -0.98828,1.527343 C 366.51953,231.70312 228.13672,364.88672 70.027344,471.37891 116.6875,531.03125 185.11719,569.73437 260.28516,578.97656 348.27734,455.67187 456.12109,347.83984 579.43359,259.86719 Z m 0,0"
             style="fill:#2382c7;fill-opacity:1;fill-rule:nonzero;stroke:none;stroke-width:4.59379959"
             id="path1362" />
          <path
             inkscape:connector-curvature="0"
             d="m 478.99219,77.800781 0.98828,-1.53125 C 451.64844,52.304688 418.91797,34.089844 383.61719,22.640625 283.33594,159.16797 160.21094,277.35937 19.671875,371.96484 c 10.082031,36.13672 27.1875,69.9375 50.34375,99.45313 C 228.13672,364.91797 366.51953,231.72266 478.99219,77.800781 Z m 0,0"
             style="fill:#288fde;fill-opacity:1;fill-rule:nonzero;stroke:none;stroke-width:4.59379959"
             id="path1364" />
          <path
             inkscape:connector-curvature="0"
             d="m 383.65625,22.640625 c -28.50781,-9.25 -58.30078,-13.949219 -88.26953,-13.9375 -7.97656,0 -15.85156,0.414063 -23.69141,1.054687 -75.6914,94.339848 -163.21875,178.542968 -260.41406,250.535158 -1.410156,11.50781 -2.132812,23.08594 -2.160156,34.67578 0,26.03125 3.542968,51.93359 10.550781,76.99609 C 160.22266,277.35937 283.36328,159.17969 383.65625,22.640625 Z m 0,0"
             style="fill:#68ccd7;fill-opacity:1;fill-rule:nonzero;stroke:none;stroke-width:4.59379959"
             id="path1366" />
          <path
             inkscape:connector-curvature="0"
             d="M 271.69531,9.757812 C 136.48828,21.003906 27.757812,125.61719 11.285156,260.29297 108.47656,188.28906 196.00391,104.08984 271.69531,9.757812 Z m 0,0"
             style="fill:#288fde;fill-opacity:1;fill-rule:nonzero;stroke:none;stroke-width:4.59379959"
             id="path1368" />
          <path
             inkscape:connector-curvature="0"
             d="m 573.82422,361.38281 -2.04297,1.17578 c -83.42188,57.48828 -156.0625,129.22266 -214.58984,211.91407 107.03515,-23.75 191.1289,-106.46875 216.63281,-213.08985 z m 0,0"
             style="fill:#2178b8;fill-opacity:1;fill-rule:nonzero;stroke:none;stroke-width:4.59379959"
             id="path1370" />
          <path
             inkscape:connector-curvature="0"
             d="m 571.78125,362.55859 2.04297,-1.17578 c 7.97656,-33.22656 9.88281,-67.61719 5.60937,-101.51562 -123.3125,87.98047 -231.16406,195.83593 -319.14843,319.14843 32.32031,4.07422 65.10156,2.53516 96.90625,-4.54296 58.53515,-82.69922 131.16796,-154.4336 214.58984,-211.91407 z m 0,0"
             style="fill:#2178b8;fill-opacity:1;fill-rule:nonzero;stroke:none;stroke-width:4.59379959"
             id="path1372" />
          <path
             inkscape:connector-curvature="0"
             d="m 473.01172,70.566406 c 0,0.769532 0.0586,1.53125 0.0586,2.300782 C 473.05078,288.84766 316.03906,472.78125 102.74219,506.70703 219.28906,613.53516 400.36719,605.65625 507.19531,489.11719 614.02344,372.57812 606.14453,191.48828 489.60547,84.664062 484.25391,79.746094 478.72656,75.046875 473.01172,70.566406 Z m 0,0"
             style="fill:#2178b8;fill-opacity:1;fill-rule:nonzero;stroke:none;stroke-width:4.59379959"
             id="path1374" />
          <path
             inkscape:connector-curvature="0"
             d="m 343.21484,577.17969 c 9.71094,-1.62891 19.32813,-3.77344 28.8125,-6.40625 54.96485,-75.25 121.82032,-141.04297 197.92969,-194.8125 2.77344,-9.41407 5.05469,-18.97266 6.83203,-28.625 -91.59765,61.27343 -170.83203,139.24609 -233.57422,229.84375 z m 0,0"
             style="fill:#28669c;fill-opacity:1;fill-rule:nonzero;stroke:none;stroke-width:4.59379959"
             id="path1376" />
          <path
             inkscape:connector-curvature="0"
             d="m 580.60937,271.34766 c -0.62109,-7.54297 -1.49218,-15.01563 -2.68359,-22.38672 -127.20312,90.26953 -238.27344,201.34375 -328.54687,328.54297 7.375,1.19531 14.80859,2.0625 22.38671,2.68359 85.74219,-118.82813 190.02344,-223.10938 308.84375,-308.83984 z m 0,0"
             style="fill:#28669c;fill-opacity:1;fill-rule:nonzero;stroke:none;stroke-width:4.59379959"
             id="path1378" />
          <path
             inkscape:connector-curvature="0"
             d="m 392.23437,27.644531 c 0.22657,-0.316406 0.4336,-0.640625 0.6211,-0.984375 l 0.42578,-0.773437 c -6.4375,-2.375 -13,-4.351563 -19.65234,-6.265625 C 276.09766,154.01953 155.32422,269.91797 17.019531,361.83594 c 1.617188,6.77343 3.445313,13.46484 5.539063,20.03906 C 166.3125,287.26953 291.59766,167.22656 392.23437,27.644531 Z m 0,0"
             style="fill:#28669c;fill-opacity:1;fill-rule:nonzero;stroke:none;stroke-width:4.59379959"
             id="path1380" />
          <path
             inkscape:connector-curvature="0"
             d="m 486.96094,83.664062 0.62109,-0.835937 C 482.69531,78.394531 477.61328,74.1875 472.42969,70.101562 l -1.38282,1.875 C 359.21484,225.1875 221.48047,357.69141 64.046875,463.51172 c 3.898437,5.32812 7.964844,10.52344 12.199219,15.57422 C 235.07422,372.125 374.0625,238.31641 486.96094,83.664062 Z m 0,0"
             style="fill:#28669c;fill-opacity:1;fill-rule:nonzero;stroke:none;stroke-width:4.59379959"
             id="path1382" />
          <path
             inkscape:connector-curvature="0"
             d="m 280.73047,14.300781 3.64062,-5.324219 C 275.35937,9.324219 266.47656,10.082031 257.71875,11.25 186.08203,99.230469 104.01172,178.18359 13.316406,246.36328 c -1.5,8.77734 -2.597656,17.66016 -3.277344,26.65234 l 4.9375,-3.17968 C 114.28906,196.5625 203.625,110.66406 280.73047,14.300781 Z m 0,0"
             style="fill:#28669c;fill-opacity:1;fill-rule:nonzero;stroke:none;stroke-width:4.59379959"
             id="path1384" />
          <path
             inkscape:connector-curvature="0"
             d="M 578.76172,11.59375 C 550.64844,-16.519531 486.96094,11.800781 438.875,40.222656 l -6.51172,3.414063 c 6.71875,3.671875 13.25391,7.632812 19.63281,11.847656 C 518.35937,16.875 553.79687,14.546875 564.80469,25.5625 594.51562,55.273438 516.97656,199.03125 358.20703,357.80078 199.4375,516.57031 55.703125,594.06641 25.972656,564.38672 15.042969,553.41797 17.246094,518.05859 55.882812,451.56641 51.734375,445.23047 47.847656,438.72266 44.203125,432.05078 l -4.105469,7.35547 c -28.210937,47.98047 -55.980468,111.03125 -28.082031,138.9375 8.785156,8.11328 20.5,12.28906 32.433594,11.57812 71.468751,0 212.175781,-102.66015 327.726561,-218.15234 C 509.59375,234.37891 628.63281,61.464844 578.76172,11.59375 Z m 0,0"
             style="fill:#68ccd7;fill-opacity:1;fill-rule:nonzero;stroke:none;stroke-width:4.59379959"
             id="path1386" />
        </g>
      </g>
    </g>
  </g>
</svg>
