<?xml version="1.0" encoding="UTF-8" standalone="no"?>
<!-- Created with Inkscape (http://www.inkscape.org/) -->

<svg
   xmlns:dc="http://purl.org/dc/elements/1.1/"
   xmlns:cc="http://creativecommons.org/ns#"
   xmlns:rdf="http://www.w3.org/1999/02/22-rdf-syntax-ns#"
   xmlns:svg="http://www.w3.org/2000/svg"
   xmlns="http://www.w3.org/2000/svg"
   xmlns:sodipodi="http://sodipodi.sourceforge.net/DTD/sodipodi-0.dtd"
   xmlns:inkscape="http://www.inkscape.org/namespaces/inkscape"
   width="210mm"
   height="297mm"
   viewBox="0 0 210 297"
   version="1.1"
   id="svg3815"
   inkscape:version="0.92.5 (2060ec1f9f, 2020-04-08)"
   sodipodi:docname="rocker_blue.svg">
  <defs
     id="defs3809" />
  <sodipodi:namedview
     id="base"
     pagecolor="#ffffff"
     bordercolor="#666666"
     borderopacity="1.0"
     inkscape:pageopacity="0.0"
     inkscape:pageshadow="2"
     inkscape:zoom="1.4"
     inkscape:cx="551.58143"
     inkscape:cy="586.5907"
     inkscape:document-units="mm"
     inkscape:current-layer="g3911"
     showgrid="false"
     inkscape:window-width="1848"
     inkscape:window-height="1016"
     inkscape:window-x="72"
     inkscape:window-y="27"
     inkscape:window-maximized="1" />
  <metadata
     id="metadata3812">
    <rdf:RDF>
      <cc:Work
         rdf:about="">
        <dc:format>image/svg+xml</dc:format>
        <dc:type
           rdf:resource="http://purl.org/dc/dcmitype/StillImage" />
        <dc:title></dc:title>
      </cc:Work>
    </rdf:RDF>
  </metadata>
  <g
     inkscape:label="Layer 1"
     inkscape:groupmode="layer"
     id="layer1">
    <g
       id="g3911"
       transform="matrix(0.26458333,0,0,0.26458333,45.659704,72.784911)">
      <path
         id="path3817"
         d="m 194.775,393.024 c -11.784,19.149 -35.126,47.93 -74.104,57.108 l 8.952,-29.461 c 0,0 -34.56,23.002 -67.759,29.461 6.459,-33.313 29.461,-67.759 29.461,-67.759 l -29.461,8.952 c 9.178,-38.978 37.959,-62.32 57.108,-74.104 l 81.594,-17.133 z"
         style="fill:#fcc400"
         inkscape:connector-curvature="0" />
      <path
         id="path3819"
         d="m 323.686,471.378 c -42.574,42.574 -110.738,43.922 -154.925,4.063 17.442,-1.849 36.247,-15.723 38.877,-40.138 1.097,-10.141 -0.609,-22.107 -6.363,-35.788 l -88.796,-88.796 c -13.681,-5.754 -25.647,-7.46 -35.788,-6.363 -24.415,2.63 -38.289,21.434 -40.138,38.876 -39.858,-44.186 -38.511,-112.351 4.063,-154.925 25.175,-25.175 59.321,-35.931 92.157,-32.262 15.056,1.684 29.833,6.385 43.348,14.139 l 165.688,165.688 c 7.754,13.515 12.462,28.298 14.139,43.348 3.668,32.836 -7.088,66.983 -32.262,92.158 z"
         style="fill:#1875f0;fill-opacity:1"
         inkscape:connector-curvature="0" />
      <path
         id="path3821"
         d="m 355.948,379.221 c -44.101,29.453 -94.536,48.027 -148.311,56.082 1.097,-10.141 -0.609,-22.107 -6.363,-35.788 l -88.796,-88.796 c -13.681,-5.754 -25.647,-7.46 -35.788,-6.363 8.055,-53.774 26.629,-104.211 56.082,-148.311 15.056,1.684 29.833,6.385 43.348,14.139 l 165.688,165.688 c 7.755,13.517 12.462,28.3 14.14,43.349 z"
         style="fill:#004db3;fill-opacity:1"
         inkscape:connector-curvature="0" />
      <path
         id="path3823"
         d="M 201.27,399.519 C 270.385,383.645 336.024,348.798 389.866,294.956 468.944,215.878 507.063,111.358 504.249,7.744 400.636,4.93 296.117,43.048 217.039,122.126 163.196,175.969 128.349,241.607 112.476,310.722 Z"
         style="fill:#e3e8ec"
         inkscape:connector-curvature="0" />
      <path
         id="path3825"
         d="M 261.95,167.039 C 208.111,220.878 165.257,278.523 135.553,333.795 L 112.479,310.72 C 128.344,241.61 163.201,175.968 217.04,122.129 296.117,43.05 400.636,4.934 504.251,7.75 428.29,32.587 341.028,87.961 261.95,167.039 Z"
         style="fill:#d5d8db"
         inkscape:connector-curvature="0" />
      <g
         id="g3831">
	<path
   id="path3827"
   d="M 481.14,151.524 C 457.987,137.614 435.026,119.771 413.627,98.373 403.294,88.04 393.798,77.355 385.17,66.463 375.918,54.775 367.656,42.844 360.447,30.862 406.547,14.201 455.155,6.497 503.569,7.73 c 0.229,0.014 0.459,0.014 0.681,0.021 l -0.007,0.007 c 1.319,48.628 -6.37,97.451 -23.103,143.766 z"
   style="fill:#1875f0;fill-opacity:1"
   inkscape:connector-curvature="0" />

	<path
   id="path3829"
   d="m 489.066,341.327 c -0.007,-0.007 0,-0.014 -0.007,-0.021"
   style="fill:#e30e08"
   inkscape:connector-curvature="0" />

</g>
      <path
         id="path3833"
         d="m 504.25,7.75 -0.007,0.007 C 466.542,20.075 426.054,39.926 385.17,66.462 375.918,54.774 367.656,42.843 360.447,30.861 406.547,14.2 455.155,6.496 503.569,7.729 c 0.23,0.014 0.459,0.014 0.681,0.021 z"
         style="fill:#004db3;fill-opacity:1"
         inkscape:connector-curvature="0" />
      <circle
         id="circle3835"
         r="73.018997"
         cy="181.41499"
         cx="330.58401"
         style="fill:#1875f0;fill-opacity:1" />
      <circle
         id="circle3837"
         r="49.172001"
         cy="181.41499"
         cx="330.58401"
         style="fill:#a0d9f2" />
      <path
         id="path3839"
         d="M 511.847,7.539 C 511.738,3.504 508.49,0.255 504.456,0.147 440.089,-1.596 375.931,12.303 318.415,40.408 c -3.825,1.869 -5.365,6.522 -3.421,10.309 l 10e-4,0.002 c 1.888,3.678 6.368,5.169 10.084,3.355 10.511,-5.134 21.255,-9.771 32.184,-13.91 14.068,22.427 31.192,43.793 50.981,63.583 19.805,19.805 41.174,36.928 63.594,50.981 -0.388,1.022 -0.756,2.048 -1.152,3.067 -19.286,49.541 -48.286,93.882 -86.193,131.789 -50.012,50.012 -112.464,85.072 -180.841,101.57 l -82.807,-82.808 c 16.497,-68.378 51.558,-130.83 101.57,-180.841 21.481,-21.481 45.339,-40.309 71.003,-56.04 3.53,-2.164 4.685,-6.747 2.591,-10.319 v 0 c -2.152,-3.671 -6.904,-4.869 -10.531,-2.645 -26.683,16.356 -51.486,35.927 -73.812,58.254 -13.691,13.691 -26.294,28.285 -37.761,43.646 C 128.02,137.457 71.899,146.278 35.24,182.938 c -45.259,45.259 -47.161,117.907 -4.326,165.39 1.465,1.626 3.528,2.51 5.645,2.51 1.196,0 2.409,-0.283 3.541,-0.874 2.287,-1.193 3.75,-3.542 4.037,-6.105 1.217,-10.879 7.938,-21.152 17.578,-26.843 11.837,-6.988 27.208,-7.163 44.616,-0.561 -20.576,14.515 -43.51,37.889 -51.824,72.959 -0.498,2.098 -0.169,4.353 1.038,6.138 1.918,2.839 5.388,4.002 8.53,3.045 l 10.774,-3.273 c -7.319,13.558 -16.549,33.411 -20.414,53.203 -0.334,1.713 -0.149,3.516 0.656,5.064 1.614,3.105 4.982,4.631 8.226,4.002 19.8,-3.851 39.752,-13.127 53.364,-20.468 l -3.209,10.56 c -0.647,2.129 -0.467,4.47 0.689,6.372 1.43,2.353 3.924,3.676 6.512,3.676 0.58,0 1.163,-0.066 1.742,-0.203 35.164,-8.279 58.59,-31.254 73.127,-51.862 6.603,17.408 6.427,32.779 -0.56,44.615 -5.698,9.651 -15.988,16.377 -26.882,17.582 -2.345,0.259 -4.52,1.507 -5.768,3.509 -2.013,3.231 -1.349,7.286 1.338,9.709 22.904,20.661 51.659,30.913 80.375,30.913 30.817,0 61.588,-11.811 85.015,-35.239 2.887,-2.886 5.633,-5.925 8.212,-9.084 2.795,-3.423 2.14,-8.491 -1.466,-11.047 h -10e-4 c -3.278,-2.324 -7.772,-1.672 -10.314,1.44 -2.254,2.761 -4.655,5.416 -7.18,7.94 -36.086,36.086 -92.106,40.616 -133.139,12.682 9.407,-4.322 17.483,-11.503 22.901,-20.678 6.269,-10.618 11.497,-28.124 3.318,-53.125 45.805,-11.577 88.972,-31.191 127.683,-57.821 12.442,26.37 13.347,56.759 2.444,83.87 -1.497,3.722 0.111,7.967 3.724,9.713 l 0.004,0.002 c 3.935,1.901 8.698,0.116 10.333,-3.938 12.876,-31.925 11.444,-67.835 -3.967,-98.631 15.357,-11.464 29.947,-24.064 43.634,-37.751 C 434.651,260.924 464.8,214.823 484.855,163.307 504.221,113.554 513.304,61.145 511.847,7.539 Z M 53.982,303.924 C 44.805,309.342 37.625,317.418 33.303,326.825 5.369,285.791 9.9,229.772 45.986,193.686 c 31.445,-31.446 79.28,-39.459 118.943,-20.763 -26.631,38.711 -46.245,81.878 -57.822,127.684 -25,-8.179 -42.507,-2.951 -53.125,3.317 z m 78.127,134.705 4.785,-15.749 c 0.932,-3.07 -0.163,-6.395 -2.738,-8.309 -2.576,-1.914 -6.075,-2.005 -8.746,-0.228 -0.291,0.194 -25.763,17.017 -53.095,25.33 8.304,-27.345 25.138,-52.791 25.33,-53.08 1.783,-2.67 1.695,-6.173 -0.218,-8.751 -1.913,-2.579 -5.243,-3.674 -8.313,-2.743 l -15.748,4.786 c 9.751,-24.936 28.295,-42.04 44.561,-52.961 l 67.142,67.143 c -10.919,16.266 -28.022,34.809 -52.96,44.562 z M 477.091,140.057 C 456.666,126.953 437.156,111.157 418.994,92.996 400.851,74.854 385.06,55.356 371.946,34.933 412.003,21.601 454.274,14.884 496.781,15.214 c 0.373,42.725 -6.241,84.607 -19.69,124.843 z"
         inkscape:connector-curvature="0" />
      <path
         d="m 330.58023,100.79609 c -21.534,0 -41.77886,8.38433 -57.00586,23.61133 -31.432,31.434 -31.432,82.57872 0,114.01172 15.227,15.227 35.47286,23.61133 57.00586,23.61133 21.533,0 41.77791,-8.38433 57.00391,-23.61133 31.433,-31.433 31.433,-82.57872 0,-114.01172 -15.226,-15.227 -35.47091,-23.61133 -57.00391,-23.61133 z m 0,15.20117 c 17.473,0 33.90086,6.80416 46.25586,19.16016 25.506,25.505 25.506,67.00672 0,92.51172 -12.354,12.355 -28.78186,19.16016 -46.25586,19.16016 -17.474,0 -33.90181,-6.80416 -46.25781,-19.16016 -25.505,-25.506 -25.505,-67.00572 0,-92.51172 12.355,-12.355 28.78281,-19.16016 46.25781,-19.16016 z"
         id="path3841"
         inkscape:connector-curvature="0" />
      <path
         d="M 503.15039 399.76367 C 488.61327 399.76367 474.07727 405.29773 463.00977 416.36523 C 440.87777 438.49923 440.87777 474.51444 463.00977 496.64844 C 474.07777 507.71544 488.61339 513.24805 503.15039 513.24805 C 517.68739 513.24805 532.22497 507.71544 543.29297 496.64844 C 565.42697 474.51444 565.42697 438.50023 543.29297 416.36523 C 532.22497 405.29773 517.68752 399.76367 503.15039 399.76367 z M 503.15234 414.95898 C 513.79534 414.95898 524.44192 419.01323 532.54492 427.11523 C 548.75192 443.32223 548.75192 469.69339 532.54492 485.90039 C 516.33992 502.10739 489.96477 502.10739 473.75977 485.90039 C 457.55277 469.69339 457.55277 443.32223 473.75977 427.11523 C 481.86377 419.01023 492.50634 414.95898 503.15234 414.95898 z "
         transform="translate(-172.57211,-275.09258)"
         id="path3843" />
      <g
         id="g3845">
</g>
      <g
         id="g3847">
</g>
      <g
         id="g3849">
</g>
      <g
         id="g3851">
</g>
      <g
         id="g3853">
</g>
      <g
         id="g3855">
</g>
      <g
         id="g3857">
</g>
      <g
         id="g3859">
</g>
      <g
         id="g3861">
</g>
      <g
         id="g3863">
</g>
      <g
         id="g3865">
</g>
      <g
         id="g3867">
</g>
      <g
         id="g3869">
</g>
      <g
         id="g3871">
</g>
      <g
         id="g3873">
</g>
    </g>
  </g>
</svg>
